<svg width="681" height="244" xmlns="http://www.w3.org/2000/svg" xmlns:xlink="http://www.w3.org/1999/xlink" overflow="hidden"><defs><clipPath id="clip0"><rect x="73" y="247" width="681" height="244"/></clipPath><clipPath id="clip1"><rect x="213" y="315" width="62" height="61"/></clipPath><clipPath id="clip2"><rect x="213" y="315" width="62" height="61"/></clipPath><clipPath id="clip3"><rect x="213" y="315" width="62" height="61"/></clipPath><clipPath id="clip4"><rect x="139" y="315" width="61" height="61"/></clipPath><clipPath id="clip5"><rect x="139" y="315" width="61" height="61"/></clipPath><clipPath id="clip6"><rect x="139" y="315" width="61" height="61"/></clipPath><clipPath id="clip7"><rect x="363" y="315" width="62" height="61"/></clipPath><clipPath id="clip8"><rect x="363" y="315" width="62" height="61"/></clipPath><clipPath id="clip9"><rect x="363" y="315" width="62" height="61"/></clipPath><clipPath id="clip10"><rect x="288" y="315" width="62" height="61"/></clipPath><clipPath id="clip11"><rect x="288" y="315" width="62" height="61"/></clipPath><clipPath id="clip12"><rect x="288" y="315" width="62" height="61"/></clipPath><clipPath id="clip13"><rect x="438" y="315" width="62" height="61"/></clipPath><clipPath id="clip14"><rect x="438" y="315" width="62" height="61"/></clipPath><clipPath id="clip15"><rect x="438" y="315" width="62" height="61"/></clipPath><clipPath id="clip16"><rect x="513" y="315" width="61" height="61"/></clipPath><clipPath id="clip17"><rect x="513" y="315" width="61" height="61"/></clipPath><clipPath id="clip18"><rect x="513" y="315" width="61" height="61"/></clipPath><clipPath id="clip19"><rect x="148" y="301" width="122" height="121"/></clipPath><clipPath id="clip20"><rect x="148" y="301" width="122" height="121"/></clipPath><clipPath id="clip21"><rect x="148" y="301" width="122" height="121"/></clipPath><clipPath id="clip22"><rect x="395" y="301" width="122" height="121"/></clipPath><clipPath id="clip23"><rect x="395" y="301" width="122" height="121"/></clipPath><clipPath id="clip24"><rect x="395" y="301" width="122" height="121"/></clipPath></defs><g clip-path="url(#clip0)" transform="translate(-73 -247)"><path d="M0.4636 0.309067 680.388 0.309067 680.388 244.309 0.463585 244.309Z" fill="#F2F2F2" transform="matrix(1.00158 0 0 1 72.5357 246.691)"/><g clip-path="url(#clip1)"><g clip-path="url(#clip2)"><g clip-path="url(#clip3)"><path d="M5.02217 10.6721 5.02217 49.5938 55.2438 49.5938 55.2438 10.6721ZM48.3383 14.4387C49.0318 14.4387 49.5938 15.0008 49.5938 15.6942 49.5938 16.3877 49.0318 16.9497 48.3383 16.9497 47.6449 16.9497 47.0827 16.3877 47.0827 15.6942 47.0827 15.0008 47.6449 14.4387 48.3383 14.4387ZM43.944 14.4387C44.6373 14.4387 45.1995 15.0008 45.1995 15.6942 45.1995 16.3877 44.6373 16.9497 43.944 16.9497 43.2504 16.9497 42.6884 16.3877 42.6884 15.6942 42.6884 15.0008 43.2504 14.4387 43.944 14.4387ZM39.5495 14.4387C40.243 14.4387 40.805 15.0008 40.805 15.6942 40.805 16.3877 40.243 16.9497 39.5495 16.9497 38.8561 16.9497 38.2939 16.3877 38.2939 15.6942 38.2939 15.0008 38.8561 14.4387 39.5495 14.4387ZM51.4772 45.8272 8.78879 45.8272 8.78879 20.7164 51.4772 20.7164Z" transform="matrix(1.00158 0 0 1 213.998 315.611)"/></g></g></g><g clip-path="url(#clip4)"><g clip-path="url(#clip5)"><g clip-path="url(#clip6)"><path d="M5.01721 10.6616 5.01721 49.5449 55.1893 49.5449 55.1893 10.6616ZM48.2906 14.4245C48.9834 14.4245 49.5449 14.986 49.5449 15.6788 49.5449 16.3715 48.9834 16.9331 48.2906 16.9331 47.5979 16.9331 47.0364 16.3715 47.0364 15.6788 47.0364 14.986 47.5979 14.4245 48.2906 14.4245ZM43.9007 14.4245C44.5934 14.4245 45.1549 14.986 45.1549 15.6788 45.1549 16.3715 44.5934 16.9331 43.9007 16.9331 43.2079 16.9331 42.6464 16.3715 42.6464 15.6788 42.6464 14.986 43.2079 14.4245 43.9007 14.4245ZM39.5105 14.4245C40.2033 14.4245 40.7648 14.986 40.7648 15.6788 40.7648 16.3715 40.2033 16.9331 39.5105 16.9331 38.8178 16.9331 38.2563 16.3715 38.2563 15.6788 38.2563 14.986 38.8178 14.4245 39.5105 14.4245ZM51.4265 45.7821 8.78012 45.7821 8.78012 20.6961 51.4265 20.6961Z" transform="matrix(1 0 0 1.00099 139.243 315.611)"/></g></g></g><g clip-path="url(#clip7)"><g clip-path="url(#clip8)"><g clip-path="url(#clip9)"><path d="M5.02217 10.6721 5.02217 49.5938 55.2438 49.5938 55.2438 10.6721ZM48.3383 14.4387C49.0318 14.4387 49.5938 15.0008 49.5938 15.6942 49.5938 16.3877 49.0318 16.9497 48.3383 16.9497 47.6449 16.9497 47.0827 16.3877 47.0827 15.6942 47.0827 15.0008 47.6449 14.4387 48.3383 14.4387ZM43.944 14.4387C44.6373 14.4387 45.1995 15.0008 45.1995 15.6942 45.1995 16.3877 44.6373 16.9497 43.944 16.9497 43.2504 16.9497 42.6884 16.3877 42.6884 15.6942 42.6884 15.0008 43.2504 14.4387 43.944 14.4387ZM39.5495 14.4387C40.243 14.4387 40.805 15.0008 40.805 15.6942 40.805 16.3877 40.243 16.9497 39.5495 16.9497 38.8561 16.9497 38.2939 16.3877 38.2939 15.6942 38.2939 15.0008 38.8561 14.4387 39.5495 14.4387ZM51.4772 45.8272 8.78879 45.8272 8.78879 20.7164 51.4772 20.7164Z" transform="matrix(1.00158 0 0 1 363.818 315.611)"/></g></g></g><g clip-path="url(#clip10)"><g clip-path="url(#clip11)"><g clip-path="url(#clip12)"><path d="M5.02217 10.6721 5.02217 49.5938 55.2438 49.5938 55.2438 10.6721ZM48.3383 14.4387C49.0318 14.4387 49.5938 15.0008 49.5938 15.6942 49.5938 16.3877 49.0318 16.9497 48.3383 16.9497 47.6449 16.9497 47.0827 16.3877 47.0827 15.6942 47.0827 15.0008 47.6449 14.4387 48.3383 14.4387ZM43.944 14.4387C44.6373 14.4387 45.1995 15.0008 45.1995 15.6942 45.1995 16.3877 44.6373 16.9497 43.944 16.9497 43.2504 16.9497 42.6884 16.3877 42.6884 15.6942 42.6884 15.0008 43.2504 14.4387 43.944 14.4387ZM39.5495 14.4387C40.243 14.4387 40.805 15.0008 40.805 15.6942 40.805 16.3877 40.243 16.9497 39.5495 16.9497 38.8561 16.9497 38.2939 16.3877 38.2939 15.6942 38.2939 15.0008 38.8561 14.4387 39.5495 14.4387ZM51.4772 45.8272 8.78879 45.8272 8.78879 20.7164 51.4772 20.7164Z" transform="matrix(1.00158 0 0 1 288.908 315.611)"/></g></g></g><g clip-path="url(#clip13)"><g clip-path="url(#clip14)"><g clip-path="url(#clip15)"><path d="M5.01722 10.6616 5.01722 49.5451 55.1893 49.5451 55.1893 10.6616ZM48.2908 14.4245C48.9834 14.4245 49.5451 14.9861 49.5451 15.6788 49.5451 16.3715 48.9834 16.9331 48.2908 16.9331 47.598 16.9331 47.0364 16.3715 47.0364 15.6788 47.0364 14.9861 47.598 14.4245 48.2908 14.4245ZM43.9007 14.4245C44.5934 14.4245 45.1549 14.9861 45.1549 15.6788 45.1549 16.3715 44.5934 16.9331 43.9007 16.9331 43.2079 16.9331 42.6464 16.3715 42.6464 15.6788 42.6464 14.9861 43.2079 14.4245 43.9007 14.4245ZM39.5105 14.4245C40.2033 14.4245 40.765 14.9861 40.765 15.6788 40.765 16.3715 40.2033 16.9331 39.5105 16.9331 38.8178 16.9331 38.2563 16.3715 38.2563 15.6788 38.2563 14.9861 38.8178 14.4245 39.5105 14.4245ZM51.4265 45.7821 8.78013 45.7821 8.78013 20.6961 51.4265 20.6961Z" transform="matrix(1 0 0 1.00099 438.728 315.611)"/></g></g></g><g clip-path="url(#clip16)"><g clip-path="url(#clip17)"><g clip-path="url(#clip18)"><path d="M445.273 79.5916 445.273 118.514 495.495 118.514 495.495 79.5916ZM488.589 83.3582C489.283 83.3582 489.845 83.9204 489.845 84.6138 489.845 85.3073 489.283 85.8693 488.589 85.8693 487.896 85.8693 487.334 85.3073 487.334 84.6138 487.334 83.9204 487.896 83.3582 488.589 83.3582ZM484.195 83.3582C484.888 83.3582 485.45 83.9204 485.45 84.6138 485.45 85.3073 484.888 85.8693 484.195 85.8693 483.502 85.8693 482.939 85.3073 482.939 84.6138 482.939 83.9204 483.502 83.3582 484.195 83.3582ZM479.801 83.3582C480.495 83.3582 481.056 83.9204 481.056 84.6138 481.056 85.3073 480.495 85.8693 479.801 85.8693 479.107 85.8693 478.544 85.3073 478.544 84.6138 478.544 83.9204 479.107 83.3582 479.801 83.3582ZM491.729 114.747 449.04 114.747 449.04 89.6359 491.729 89.6359Z" transform="matrix(1.00158 0 0 1 72.5357 246.691)"/></g></g></g><path d="M23.3338 138.767C23.3338 131.256 29.4222 125.168 36.9324 125.168L510.87 125.168C518.38 125.168 524.469 131.256 524.469 138.767L524.469 138.767C524.469 146.277 518.38 152.365 510.87 152.365L36.9324 152.365C29.4222 152.365 23.3338 146.276 23.3338 138.766Z" stroke="#000000" stroke-width="4.24953" stroke-miterlimit="8" fill="none" fill-rule="evenodd" transform="matrix(1.00158 0 0 1 72.5357 246.691)"/><g clip-path="url(#clip19)"><g clip-path="url(#clip20)"><g clip-path="url(#clip21)"><path d="M114.615 46.4825C114.538 45.3565 113.719 44.4207 112.613 44.1948L99.3369 41.4842C98.5113 41.3132 97.6552 41.5705 97.0605 42.1684L94.3787 44.849 76.5501 27.0204C76.3348 30.6735 74.363 33.9959 71.2592 35.9348L87.2761 51.9516 84.686 54.5431C84.0976 55.1315 83.839 55.9732 83.9955 56.7905L86.563 70.2046C86.7779 71.326 87.7227 72.1613 88.8619 72.2374L102.178 73.125C102.235 73.125 102.291 73.1312 102.348 73.1312 103.734 73.1767 104.896 72.0893 104.941 70.7025 104.986 69.3155 103.899 68.1546 102.512 68.1091L91.1294 67.3558 89.1771 57.1545 99.657 46.6746 109.734 48.7274 110.495 60.1327C110.587 61.5175 111.784 62.5653 113.169 62.4731 114.554 62.3807 115.602 61.1834 115.509 59.7988Z" stroke="#FFFFFF" stroke-width="1.25551" transform="matrix(1.0003 0 0 1 148.374 301.085)"/><path d="M53.914 63.9583C53.915 59.9224 52.7609 55.9704 50.5881 52.5694L41.729 63.1536C37.1449 68.6485 28.9741 69.3869 23.4792 64.8026 17.9843 60.2186 17.2459 52.0478 21.83 46.5529 22.3288 45.9549 22.8807 45.4031 23.4786 44.9043L23.8051 44.6306C16.2357 48.0848 11.3782 55.6381 11.3752 63.9583L11.3752 87.8876 53.914 87.8876Z" stroke="#FFFFFF" stroke-width="1.25551" transform="matrix(1.0003 0 0 1 148.374 301.085)"/><path d="M53.9881 26.3662C53.9881 25.602 54.0654 24.8399 54.2191 24.0913L25.8929 47.7921C22.0023 51.0518 21.491 56.8485 24.7509 60.7391 28.0107 64.6298 33.8073 65.141 37.6981 61.8811 38.1115 61.5348 38.4937 61.1525 38.8401 60.7391L59.4974 36.0515C56.0863 34.0159 53.9946 30.3387 53.9881 26.3662ZM35.0584 55.1256C34.0779 56.1064 32.488 56.1067 31.5072 55.1261 30.5264 54.1457 30.5262 52.5558 31.5065 51.575 32.4872 50.5942 34.077 50.5938 35.0578 51.5745 35.058 51.5747 35.0583 51.5748 35.0584 51.575 36.0386 52.5555 36.0386 54.1451 35.0584 55.1256Z" stroke="#FFFFFF" stroke-width="1.25551" transform="matrix(1.0003 0 0 1 148.374 301.085)"/><path d="M53.9881 92.9097 11.2998 92.9097C8.52618 92.9097 6.27768 95.1583 6.27768 97.932L6.27768 102.954 59.0103 102.954 59.0103 97.932C59.0103 95.1583 56.7617 92.9097 53.9881 92.9097Z" stroke="#FFFFFF" stroke-width="1.25551" transform="matrix(1.0003 0 0 1 148.374 301.085)"/><path d="M65.288 18.8331C61.1274 18.8331 57.7547 22.2058 57.7547 26.3662 57.7547 30.5268 61.1274 33.8995 65.288 33.8995 69.4484 33.8995 72.8212 30.5268 72.8212 26.3662 72.8212 22.2058 69.4484 18.8331 65.288 18.8331ZM65.288 28.2496C64.2478 28.2496 63.4047 27.4063 63.4047 26.3662 63.4047 25.3262 64.2478 24.4829 65.288 24.4829 66.3281 24.4829 67.1712 25.3262 67.1712 26.3662 67.1712 27.4063 66.3281 28.2496 65.288 28.2496Z" stroke="#FFFFFF" stroke-width="1.25551" transform="matrix(1.0003 0 0 1 148.374 301.085)"/></g></g></g><path d="M11.4351 11.4351 166.89 11.4351 166.89 57.7935 11.4351 57.7935Z" fill="#F2F2F2" transform="matrix(1.00158 0 0 1 72.5357 246.691)"/><text font-family="CMU Serif,CMU Serif_MSFontService,sans-serif" font-weight="500" font-size="110" transform="matrix(0.154773 0 0 0.154528 97.7574 276)">Automation <tspan font-size="110" x="614.167" y="0">with</tspan><tspan font-family="Lucida Console,Lucida Console_MSFontService,sans-serif" font-weight="400" font-stretch="semi-condensed" font-size="110" x="15.1708" y="135.898">ma</tspan><tspan font-family="Lucida Console,Lucida Console_MSFontService,sans-serif" font-weight="400" font-stretch="semi-condensed" font-size="110" x="148.088" y="135.898">p</tspan><tspan font-family="Lucida Console,Lucida Console_MSFontService,sans-serif" font-weight="400" font-stretch="semi-condensed" font-size="110" x="214.546" y="135.898">_</tspan><tspan font-family="Lucida Console,Lucida Console_MSFontService,sans-serif" font-weight="400" font-stretch="semi-condensed" font-size="110" x="281.004" y="135.898">scrape</tspan><tspan font-family="Lucida Console,Lucida Console_MSFontService,sans-serif" font-weight="400" font-stretch="semi-condensed" font-size="110" x="679.754" y="135.898">()</tspan></text><g clip-path="url(#clip22)"><g clip-path="url(#clip23)"><g clip-path="url(#clip24)"><path d="M436.961 101.031C436.884 99.9051 436.065 98.9694 434.96 98.7435L421.683 96.0328C420.858 95.8619 420.001 96.1192 419.407 96.717L416.725 99.3976 398.896 81.5689C398.681 85.2221 396.709 88.5445 393.605 90.4834L409.622 106.5 407.032 109.092C406.443 109.68 406.185 110.522 406.341 111.339L408.909 124.753C409.124 125.875 410.068 126.71 411.207 126.786L424.524 127.674C424.58 127.674 424.637 127.68 424.694 127.68 426.081 127.725 427.241 126.638 427.287 125.251 427.332 123.864 426.244 122.703 424.858 122.658L413.476 121.905 411.522 111.703 422.003 101.223 432.079 103.276 432.841 114.681C432.934 116.066 434.13 117.114 435.515 117.022 436.901 116.929 437.948 115.732 437.856 114.347Z" stroke="#FFFFFF" stroke-width="1.25552" transform="matrix(1.00158 0 0 1 72.5357 246.691)"/><path d="M376.261 118.507C376.261 114.471 375.106 110.519 372.934 107.118L364.075 117.702C359.491 123.197 351.32 123.936 345.825 119.351 340.33 114.767 339.591 106.596 344.176 101.102 344.675 100.504 345.227 99.9518 345.825 99.4529L346.151 99.1791C338.582 102.633 333.724 110.187 333.721 118.507L333.721 142.436 376.261 142.436Z" stroke="#FFFFFF" stroke-width="1.25552" transform="matrix(1.00158 0 0 1 72.5357 246.691)"/><path d="M376.333 80.9148C376.333 80.1505 376.412 79.3884 376.565 78.6399L348.239 102.341C344.348 105.601 343.838 111.397 347.097 115.288 350.357 119.178 356.153 119.69 360.044 116.43 360.457 116.083 360.839 115.701 361.186 115.288L381.844 90.6C378.432 88.5644 376.341 84.8873 376.333 80.9148ZM357.404 109.674C356.424 110.655 354.834 110.655 353.853 109.675 352.873 108.694 352.871 107.104 353.853 106.124 354.832 105.143 356.422 105.143 357.404 106.123 357.404 106.123 357.404 106.123 357.404 106.124 358.385 107.104 358.385 108.694 357.404 109.674Z" stroke="#FFFFFF" stroke-width="1.25552" transform="matrix(1.00158 0 0 1 72.5357 246.691)"/><path d="M376.333 147.459 333.645 147.459C330.873 147.459 328.623 149.707 328.623 152.481L328.623 157.503 381.355 157.503 381.355 152.481C381.355 149.707 379.107 147.459 376.333 147.459Z" stroke="#FFFFFF" stroke-width="1.25552" transform="matrix(1.00158 0 0 1 72.5357 246.691)"/><path d="M387.634 73.3816C383.474 73.3816 380.101 76.7543 380.101 80.9148 380.101 85.0753 383.474 88.4481 387.634 88.4481 391.794 88.4481 395.167 85.0753 395.167 80.9148 395.167 76.7543 391.794 73.3816 387.634 73.3816ZM387.634 82.7981C386.594 82.7981 385.75 81.955 385.75 80.9148 385.75 79.8747 386.594 79.0316 387.634 79.0316 388.674 79.0316 389.518 79.8747 389.518 80.9148 389.518 81.955 388.674 82.7981 387.634 82.7981Z" stroke="#FFFFFF" stroke-width="1.25552" transform="matrix(1.00158 0 0 1 72.5357 246.691)"/></g></g></g><path d="M136.062 174.076 269.111 174.076 269.111 225.843 136.062 225.843Z" stroke="#000000" stroke-width="3.18714" stroke-miterlimit="8" fill="#FFFFFF" transform="matrix(1.00158 0 0 1 72.5357 246.691)"/><path d="M124.975 183.782 113.887 183.782 104.471 160.277" stroke="#000000" stroke-width="3.18714" stroke-miterlimit="8" fill="none" fill-rule="evenodd" transform="matrix(1.00158 0 0 1 72.5357 246.691)"/><text font-family="CMU Serif,CMU Serif_MSFontService,sans-serif" font-weight="500" font-size="83" transform="matrix(0.154773 0 0 0.154528 218.562 442)">User <tspan font-size="83" x="190.781" y="0">defined</tspan><tspan font-size="83" x="477.24" y="0">flexible </tspan><tspan font-family="Lucida Console,Lucida Console_MSFontService,sans-serif" font-weight="400" font-stretch="semi-condensed" font-size="83" x="92.8124" y="110.012">scrapefun</tspan><tspan font-family="Lucida Console,Lucida Console_MSFontService,sans-serif" font-weight="400" font-stretch="semi-condensed" font-size="83" x="541.406" y="110.012">()</tspan></text><path d="M382.689 174.076 478.806 174.076 478.806 225.843 382.689 225.843Z" stroke="#000000" stroke-width="3.18714" stroke-miterlimit="8" fill="#FFFFFF" transform="matrix(1.00158 0 0 1 72.5357 246.691)"/><path d="M374.68 183.782 366.669 183.782 358.453 164.535" stroke="#000000" stroke-width="3.18714" stroke-miterlimit="8" fill="none" fill-rule="evenodd" transform="matrix(1.00158 0 0 1 72.5357 246.691)"/><text font-family="CMU Serif,CMU Serif_MSFontService,sans-serif" font-weight="500" font-size="83" transform="matrix(0.154773 0 0 0.154528 482.445 442)">Parallel <tspan font-size="83" x="-12.8792" y="103.541">Workers</tspan></text><path d="M472.054 94.1738 472.359 99.3057 471.198 99.3335 472.366 104.169 471.158 104.299 471.87 111.795 468.06 104.474 469.492 104.406 467.167 99.7719 468.917 99.5321 466.451 94.6589Z" stroke="#000000" stroke-width="0.708254" stroke-miterlimit="8" fill-rule="evenodd" transform="matrix(1.00158 0 0 1 72.5357 246.691)"/><path d="M0 0 76.955 0 76.955 47.7492 0 47.7492Z" stroke="#000000" stroke-width="3.18714" stroke-miterlimit="8" fill="#FFFFFF" transform="matrix(-1.00158 0 0 1 517.12 262.53)"/><path d="M-6.41266 8.95301-12.8261 8.95301-23.9431 59.7095" stroke="#000000" stroke-width="3.18714" stroke-miterlimit="8" fill="none" fill-rule="evenodd" transform="matrix(-1.00158 0 0 1 517.12 262.53)"/><text font-family="CMU Serif,CMU Serif_MSFontService,sans-serif" font-weight="500" font-size="83" transform="matrix(0.154773 0 0 0.154528 463.519 282)">Error <tspan font-size="83" x="-67.0312" y="103.541">Handling</tspan></text><path d="M552.979 97.0952C552.979 85.5881 577.228 76.2597 607.141 76.2597 637.055 76.2597 661.303 85.5881 661.303 97.0952L661.303 180.438C661.303 191.944 637.055 201.273 607.141 201.273 577.228 201.273 552.979 191.944 552.979 180.438Z" fill="#FFFFFF" fill-rule="evenodd" transform="matrix(1.00158 0 0 1 72.5357 246.691)"/><path d="M661.303 97.0952C661.303 108.602 637.055 117.931 607.141 117.931 577.228 117.931 552.979 108.602 552.979 97.0952" stroke="#000000" stroke-width="3.18714" stroke-miterlimit="8" fill="none" fill-rule="evenodd" transform="matrix(1.00158 0 0 1 72.5357 246.691)"/><path d="M552.979 97.0952C552.979 85.5881 577.228 76.2597 607.141 76.2597 637.055 76.2597 661.303 85.5881 661.303 97.0952L661.303 180.438C661.303 191.944 637.055 201.273 607.141 201.273 577.228 201.273 552.979 191.944 552.979 180.438Z" stroke="#000000" stroke-width="3.18714" stroke-miterlimit="8" fill="none" fill-rule="evenodd" transform="matrix(1.00158 0 0 1 72.5357 246.691)"/><text font-family="CMU Serif,CMU Serif_MSFontService,sans-serif" font-weight="500" font-size="83" transform="matrix(0.154773 0 0 0.154528 651.257 399)">Tidy<tspan font-size="83" x="199.375" y="0">Data</tspan></text><path d="M0 0 117.287 0 117.287 47.7492 0 47.7492Z" stroke="#000000" stroke-width="3.18714" stroke-miterlimit="8" fill="#FFFFFF" transform="matrix(-1.00158 0 0 1 373.027 262.53)"/><path d="M-9.77352 8.95302-19.5481 8.95302-21.6078 57.2236" stroke="#000000" stroke-width="3.18714" stroke-miterlimit="8" fill="none" fill-rule="evenodd" transform="matrix(-1.00158 0 0 1 373.027 262.53)"/><text font-family="Lucida Console,Lucida Console_MSFontService,sans-serif" font-weight="400" font-stretch="semi-condensed" font-size="83" transform="matrix(0.154773 0 0 0.154528 267.896 283)">purrr<tspan font-size="83" x="249.219" y="0">::</tspan><tspan font-size="83" x="349.219" y="0">map</tspan><tspan font-size="83" x="498.438" y="0">() </tspan><tspan font-family="CMU Serif,CMU Serif_MSFontService,sans-serif" font-weight="500" font-stretch="normal" font-size="83" x="-24.0625" y="97.0697">oriented</tspan><tspan font-family="CMU Serif,CMU Serif_MSFontService,sans-serif" font-weight="500" font-stretch="normal" font-size="83" x="296.771" y="97.0697">workflow</tspan></text></g></svg>