<svg width="4400" height="1579" xmlns="http://www.w3.org/2000/svg" xmlns:xlink="http://www.w3.org/1999/xlink" overflow="hidden"><defs><clipPath id="clip0"><rect x="3" y="2" width="4400" height="1579"/></clipPath><clipPath id="clip1"><rect x="914" y="445" width="390" height="391"/></clipPath><clipPath id="clip2"><rect x="914" y="445" width="390" height="391"/></clipPath><clipPath id="clip3"><rect x="914" y="445" width="390" height="391"/></clipPath><clipPath id="clip4"><rect x="431" y="445" width="389" height="391"/></clipPath><clipPath id="clip5"><rect x="431" y="445" width="389" height="391"/></clipPath><clipPath id="clip6"><rect x="431" y="445" width="389" height="391"/></clipPath><clipPath id="clip7"><rect x="1882" y="445" width="390" height="391"/></clipPath><clipPath id="clip8"><rect x="1882" y="445" width="390" height="391"/></clipPath><clipPath id="clip9"><rect x="1882" y="445" width="390" height="391"/></clipPath><clipPath id="clip10"><rect x="1398" y="445" width="390" height="391"/></clipPath><clipPath id="clip11"><rect x="1398" y="445" width="390" height="391"/></clipPath><clipPath id="clip12"><rect x="1398" y="445" width="390" height="391"/></clipPath><clipPath id="clip13"><rect x="2366" y="445" width="390" height="391"/></clipPath><clipPath id="clip14"><rect x="2366" y="445" width="390" height="391"/></clipPath><clipPath id="clip15"><rect x="2366" y="445" width="390" height="391"/></clipPath><clipPath id="clip16"><rect x="2849" y="445" width="391" height="391"/></clipPath><clipPath id="clip17"><rect x="2849" y="445" width="391" height="391"/></clipPath><clipPath id="clip18"><rect x="2849" y="445" width="391" height="391"/></clipPath><clipPath id="clip19"><rect x="489" y="352" width="781" height="780"/></clipPath><clipPath id="clip20"><rect x="489" y="352" width="781" height="780"/></clipPath><clipPath id="clip21"><rect x="489" y="352" width="781" height="780"/></clipPath><clipPath id="clip22"><rect x="2085" y="353" width="781" height="780"/></clipPath><clipPath id="clip23"><rect x="2085" y="353" width="781" height="780"/></clipPath><clipPath id="clip24"><rect x="2085" y="353" width="781" height="780"/></clipPath></defs><g clip-path="url(#clip0)" transform="translate(-3 -2)"><rect x="3.0001" y="2.00007" width="4400" height="1579" fill="#F2F2F2"/><g clip-path="url(#clip1)"><g clip-path="url(#clip2)"><g clip-path="url(#clip3)"><path d="M32.5 69.0625 32.5 320.937 357.5 320.937 357.5 69.0625ZM312.812 93.4375C317.3 93.4375 320.937 97.075 320.937 101.562 320.937 106.05 317.3 109.687 312.812 109.687 308.325 109.687 304.687 106.05 304.687 101.562 304.687 97.075 308.325 93.4375 312.812 93.4375ZM284.375 93.4375C288.862 93.4375 292.5 97.075 292.5 101.562 292.5 106.05 288.862 109.687 284.375 109.687 279.887 109.687 276.25 106.05 276.25 101.562 276.25 97.075 279.887 93.4375 284.375 93.4375ZM255.937 93.4375C260.425 93.4375 264.062 97.075 264.062 101.562 264.062 106.05 260.425 109.687 255.937 109.687 251.45 109.687 247.812 106.05 247.812 101.562 247.812 97.075 251.45 93.4375 255.937 93.4375ZM333.125 296.562 56.875 296.562 56.875 134.062 333.125 134.062Z" transform="matrix(1 0 0 1 914 446)"/></g></g></g><g clip-path="url(#clip4)"><g clip-path="url(#clip5)"><g clip-path="url(#clip6)"><path d="M32.4166 68.8854 32.4166 320.114 356.583 320.114 356.583 68.8854ZM312.01 93.1979C316.486 93.1979 320.114 96.8261 320.114 101.302 320.114 105.778 316.486 109.406 312.01 109.406 307.534 109.406 303.906 105.778 303.906 101.302 303.906 96.8261 307.534 93.1979 312.01 93.1979ZM283.646 93.1979C288.122 93.1979 291.75 96.8261 291.75 101.302 291.75 105.778 288.122 109.406 283.646 109.406 279.17 109.406 275.542 105.778 275.542 101.302 275.542 96.8261 279.17 93.1979 283.646 93.1979ZM255.281 93.1979C259.757 93.1979 263.385 96.8261 263.385 101.302 263.385 105.778 259.757 109.406 255.281 109.406 250.805 109.406 247.177 105.778 247.177 101.302 247.177 96.8261 250.805 93.1979 255.281 93.1979ZM332.271 295.802 56.7291 295.802 56.7291 133.719 332.271 133.719Z" transform="matrix(1 0 0 1.00257 431 446)"/></g></g></g><g clip-path="url(#clip7)"><g clip-path="url(#clip8)"><g clip-path="url(#clip9)"><path d="M32.5 69.0625 32.5 320.937 357.5 320.937 357.5 69.0625ZM312.812 93.4375C317.3 93.4375 320.937 97.075 320.937 101.562 320.937 106.05 317.3 109.687 312.812 109.687 308.325 109.687 304.687 106.05 304.687 101.562 304.687 97.075 308.325 93.4375 312.812 93.4375ZM284.375 93.4375C288.862 93.4375 292.5 97.075 292.5 101.562 292.5 106.05 288.862 109.687 284.375 109.687 279.887 109.687 276.25 106.05 276.25 101.562 276.25 97.075 279.887 93.4375 284.375 93.4375ZM255.937 93.4375C260.425 93.4375 264.062 97.075 264.062 101.562 264.062 106.05 260.425 109.687 255.937 109.687 251.45 109.687 247.812 106.05 247.812 101.562 247.812 97.075 251.45 93.4375 255.937 93.4375ZM333.125 296.562 56.875 296.562 56.875 134.062 333.125 134.062Z" transform="matrix(1 0 0 1 1882 446)"/></g></g></g><g clip-path="url(#clip10)"><g clip-path="url(#clip11)"><g clip-path="url(#clip12)"><path d="M32.5 69.0625 32.5 320.937 357.5 320.937 357.5 69.0625ZM312.812 93.4375C317.3 93.4375 320.937 97.075 320.937 101.562 320.937 106.05 317.3 109.687 312.812 109.687 308.325 109.687 304.687 106.05 304.687 101.562 304.687 97.075 308.325 93.4375 312.812 93.4375ZM284.375 93.4375C288.862 93.4375 292.5 97.075 292.5 101.562 292.5 106.05 288.862 109.687 284.375 109.687 279.887 109.687 276.25 106.05 276.25 101.562 276.25 97.075 279.887 93.4375 284.375 93.4375ZM255.937 93.4375C260.425 93.4375 264.062 97.075 264.062 101.562 264.062 106.05 260.425 109.687 255.937 109.687 251.45 109.687 247.812 106.05 247.812 101.562 247.812 97.075 251.45 93.4375 255.937 93.4375ZM333.125 296.562 56.875 296.562 56.875 134.062 333.125 134.062Z" transform="matrix(1 0 0 1 1398 446)"/></g></g></g><g clip-path="url(#clip13)"><g clip-path="url(#clip14)"><g clip-path="url(#clip15)"><path d="M32.4167 68.8854 32.4167 320.115 356.583 320.115 356.583 68.8854ZM312.011 93.198C316.486 93.198 320.115 96.8262 320.115 101.302 320.115 105.778 316.486 109.406 312.011 109.406 307.535 109.406 303.906 105.778 303.906 101.302 303.906 96.8262 307.535 93.198 312.011 93.198ZM283.646 93.198C288.122 93.198 291.75 96.8262 291.75 101.302 291.75 105.778 288.122 109.406 283.646 109.406 279.17 109.406 275.542 105.778 275.542 101.302 275.542 96.8262 279.17 93.198 283.646 93.198ZM255.281 93.198C259.757 93.198 263.386 96.8262 263.386 101.302 263.386 105.778 259.757 109.406 255.281 109.406 250.805 109.406 247.177 105.778 247.177 101.302 247.177 96.8262 250.805 93.198 255.281 93.198ZM332.271 295.802 56.7292 295.802 56.7292 133.719 332.271 133.719Z" transform="matrix(1 0 0 1.00257 2366 446)"/></g></g></g><g clip-path="url(#clip16)"><g clip-path="url(#clip17)"><g clip-path="url(#clip18)"><path d="M2881.5 515.062 2881.5 766.938 3206.5 766.938 3206.5 515.062ZM3161.81 539.437C3166.3 539.437 3169.94 543.075 3169.94 547.562 3169.94 552.05 3166.3 555.687 3161.81 555.687 3157.33 555.687 3153.69 552.05 3153.69 547.562 3153.69 543.075 3157.33 539.437 3161.81 539.437ZM3133.38 539.437C3137.86 539.437 3141.5 543.075 3141.5 547.562 3141.5 552.05 3137.86 555.687 3133.38 555.687 3128.89 555.687 3125.25 552.05 3125.25 547.562 3125.25 543.075 3128.89 539.437 3133.38 539.437ZM3104.94 539.437C3109.43 539.437 3113.06 543.075 3113.06 547.562 3113.06 552.05 3109.43 555.687 3104.94 555.687 3100.45 555.687 3096.81 552.05 3096.81 547.562 3096.81 543.075 3100.45 539.437 3104.94 539.437ZM3182.13 742.562 2905.88 742.562 2905.88 580.062 3182.13 580.062Z"/></g></g></g><path d="M151 898.002C151 849.4 190.4 810 239.001 810L3306 810C3354.6 810 3394 849.4 3394 898.002L3394 898.002C3394 946.604 3354.6 986.003 3306 986.003L239.001 986C190.4 986 151 946.6 151 897.998Z" stroke="#000000" stroke-width="27.5" stroke-miterlimit="8" fill="none" fill-rule="evenodd"/><g clip-path="url(#clip19)"><g clip-path="url(#clip20)"><g clip-path="url(#clip21)"><path d="M740.764 300.418C740.263 293.141 734.968 287.093 727.822 285.633L642.018 268.114C636.682 267.009 631.149 268.672 627.306 272.536L609.973 289.861 494.746 174.634C493.355 198.244 480.611 219.717 460.551 232.248L564.069 335.765 547.329 352.514C543.526 356.317 541.855 361.757 542.866 367.039L559.46 453.735C560.849 460.983 566.955 466.381 574.318 466.873L660.381 472.61C660.746 472.61 661.112 472.65 661.477 472.65 670.44 472.944 677.944 465.916 678.237 456.953 678.531 447.989 671.503 440.486 662.54 440.192L588.973 435.323 576.355 369.392 644.087 301.66 709.215 314.927 714.132 388.64C714.729 397.59 722.467 404.362 731.416 403.766 740.366 403.169 747.138 395.431 746.542 386.482Z" stroke="#FFFFFF" stroke-width="8.11443" transform="matrix(1 0 0 1.00128 490 352)"/><path d="M348.448 413.365C348.455 387.281 340.996 361.739 326.953 339.758L269.696 408.164C240.069 443.678 187.261 448.45 151.747 418.822 116.233 389.195 111.461 336.387 141.088 300.873 144.312 297.008 147.879 293.442 151.743 290.218L153.853 288.449C104.932 310.774 73.5376 359.591 73.5182 413.365L73.5182 568.021 348.448 568.021Z" stroke="#FFFFFF" stroke-width="8.11443" transform="matrix(1 0 0 1.00128 490 352)"/><path d="M348.927 170.406C348.927 165.467 349.427 160.541 350.42 155.703L167.347 308.882C142.202 329.95 138.897 367.414 159.966 392.559 181.034 417.705 218.498 421.009 243.644 399.94 246.316 397.702 248.786 395.231 251.025 392.559L384.534 233.002C362.488 219.846 348.969 196.08 348.927 170.406ZM226.584 356.279C220.247 362.618 209.971 362.62 203.632 356.282 197.293 349.946 197.292 339.67 203.628 333.331 209.966 326.992 220.241 326.99 226.58 333.328 226.581 333.329 226.583 333.33 226.584 333.331 232.919 339.668 232.919 349.942 226.584 356.279Z" stroke="#FFFFFF" stroke-width="8.11443" transform="matrix(1 0 0 1.00128 490 352)"/><path d="M348.927 600.479 73.0313 600.479C55.105 600.479 40.5729 615.012 40.5729 632.938L40.5729 665.396 381.386 665.396 381.386 632.938C381.386 615.012 366.853 600.479 348.927 600.479Z" stroke="#FFFFFF" stroke-width="8.11443" transform="matrix(1 0 0 1.00128 490 352)"/><path d="M421.959 121.719C395.069 121.719 373.271 143.517 373.271 170.406 373.271 197.296 395.069 219.094 421.959 219.094 448.848 219.094 470.646 197.296 470.646 170.406 470.646 143.517 448.848 121.719 421.959 121.719ZM421.959 182.578C415.236 182.578 409.787 177.128 409.787 170.406 409.787 163.684 415.236 158.234 421.959 158.234 428.681 158.234 434.13 163.684 434.13 170.406 434.13 177.128 428.681 182.578 421.959 182.578Z" stroke="#FFFFFF" stroke-width="8.11443" transform="matrix(1 0 0 1.00128 490 352)"/></g></g></g><rect x="73.9999" y="73.9999" width="1006" height="300" fill="#F2F2F2"/><text font-family="CMU Serif,CMU Serif_MSFontService,sans-serif" font-weight="500" font-size="110" transform="matrix(1 0 0 1 162.96 188)">Automation <tspan font-size="110" x="614.167" y="0">with</tspan><tspan font-family="Lucida Console,Lucida Console_MSFontService,sans-serif" font-weight="400" font-stretch="semi-condensed" font-size="110" x="15.1708" y="139">ma</tspan><tspan font-family="Lucida Console,Lucida Console_MSFontService,sans-serif" font-weight="400" font-stretch="semi-condensed" font-size="110" x="148.088" y="139">p</tspan><tspan font-family="Lucida Console,Lucida Console_MSFontService,sans-serif" font-weight="400" font-stretch="semi-condensed" font-size="110" x="214.546" y="139">_</tspan><tspan font-family="Lucida Console,Lucida Console_MSFontService,sans-serif" font-weight="400" font-stretch="semi-condensed" font-size="110" x="281.004" y="139">scrape</tspan><tspan font-family="Lucida Console,Lucida Console_MSFontService,sans-serif" font-weight="400" font-stretch="semi-condensed" font-size="110" x="679.754" y="139">() </tspan></text><g clip-path="url(#clip22)"><g clip-path="url(#clip23)"><g clip-path="url(#clip24)"><path d="M2827.71 653.804C2827.21 646.517 2821.91 640.462 2814.76 639L2728.84 621.458C2723.5 620.352 2717.96 622.017 2714.11 625.886L2696.76 643.233 2581.38 527.858C2579.99 551.499 2567.23 572.999 2547.14 585.546L2650.79 689.196 2634.03 705.966C2630.22 709.774 2628.55 715.221 2629.56 720.51L2646.18 807.318C2647.57 814.575 2653.68 819.979 2661.05 820.472L2747.23 826.216C2747.59 826.216 2747.96 826.257 2748.33 826.257 2757.3 826.551 2764.81 819.514 2765.11 810.539 2765.4 801.564 2758.36 794.051 2749.39 793.757L2675.73 788.882 2663.09 722.866 2730.91 655.047 2796.12 668.331 2801.05 742.139C2801.65 751.1 2809.39 757.881 2818.35 757.284 2827.32 756.687 2834.1 748.939 2833.5 739.978Z" stroke="#FFFFFF" stroke-width="8.12485"/><path d="M2434.9 766.896C2434.9 740.778 2427.43 715.204 2413.37 693.194L2356.04 761.688C2326.38 797.247 2273.5 802.026 2237.94 772.36 2202.38 742.695 2197.6 689.819 2227.27 654.26 2230.5 650.39 2234.07 646.819 2237.94 643.591L2240.05 641.819C2191.07 664.173 2159.63 713.053 2159.61 766.896L2159.61 921.75 2434.9 921.75Z" stroke="#FFFFFF" stroke-width="8.12485"/><path d="M2435.37 523.625C2435.37 518.679 2435.88 513.747 2436.87 508.903L2253.56 662.278C2228.38 683.374 2225.08 720.885 2246.17 746.063 2267.27 771.241 2304.78 774.549 2329.96 753.454 2332.63 751.212 2335.1 748.739 2337.35 746.063L2471.03 586.301C2448.95 573.128 2435.42 549.332 2435.37 523.625ZM2312.87 709.736C2306.53 716.083 2296.24 716.085 2289.89 709.74 2283.55 703.395 2283.54 693.106 2289.89 686.759 2296.23 680.411 2306.52 680.41 2312.87 686.755 2312.87 686.756 2312.87 686.758 2312.87 686.759 2319.22 693.104 2319.22 703.391 2312.87 709.736Z" stroke="#FFFFFF" stroke-width="8.12485"/><path d="M2435.37 954.25 2159.12 954.25C2141.18 954.25 2126.62 968.801 2126.62 986.75L2126.62 1019.25 2467.87 1019.25 2467.87 986.75C2467.87 968.801 2453.32 954.25 2435.37 954.25Z" stroke="#FFFFFF" stroke-width="8.12485"/><path d="M2508.5 474.875C2481.58 474.875 2459.75 496.701 2459.75 523.625 2459.75 550.549 2481.58 572.375 2508.5 572.375 2535.42 572.375 2557.25 550.549 2557.25 523.625 2557.25 496.701 2535.42 474.875 2508.5 474.875ZM2508.5 535.812C2501.77 535.812 2496.31 530.356 2496.31 523.625 2496.31 516.894 2501.77 511.438 2508.5 511.438 2515.23 511.438 2520.69 516.894 2520.69 523.625 2520.69 530.356 2515.23 535.812 2508.5 535.812Z" stroke="#FFFFFF" stroke-width="8.12485"/></g></g></g><rect x="880.5" y="1126.5" width="861" height="335" stroke="#000000" stroke-width="20.625" stroke-miterlimit="8" fill="#FFFFFF"/><path d="M808.753 1189.31 736.997 1189.31 676.064 1037.2" stroke="#000000" stroke-width="20.625" stroke-miterlimit="8" fill="none" fill-rule="evenodd"/><text font-family="CMU Serif,CMU Serif_MSFontService,sans-serif" font-weight="500" font-size="83" transform="matrix(1 0 0 1 943.487 1265)">User <tspan font-size="83" x="190.781" y="0">defined</tspan><tspan font-size="83" x="477.24" y="0">flexible </tspan><tspan font-family="Lucida Console,Lucida Console_MSFontService,sans-serif" font-weight="400" font-stretch="semi-condensed" font-size="83" x="92.8124" y="106">scrapefun</tspan><tspan font-family="Lucida Console,Lucida Console_MSFontService,sans-serif" font-weight="400" font-stretch="semi-condensed" font-size="83" x="541.406" y="106">()</tspan></text><rect x="2476.5" y="1126.5" width="622" height="335" stroke="#000000" stroke-width="20.625" stroke-miterlimit="8" fill="#FFFFFF"/><path d="M2424.67 1189.31 2372.83 1189.31 2319.66 1064.76" stroke="#000000" stroke-width="20.625" stroke-miterlimit="8" fill="none" fill-rule="evenodd"/><text font-family="CMU Serif,CMU Serif_MSFontService,sans-serif" font-weight="500" font-size="83" transform="matrix(1 0 0 1 2648.46 1265)">Parallel <tspan font-size="83" x="-12.8792" y="101">Workers</tspan></text><path d="M3054.81 609.428 3056.78 642.638 3049.27 642.818 3056.83 674.112 3049.01 674.951 3053.62 723.46 3028.96 676.087 3038.23 675.642 3023.18 645.655 3034.51 644.103 3018.55 612.567Z" stroke="#000000" stroke-width="4.58333" stroke-miterlimit="8" fill-rule="evenodd"/><rect x="0" y="0" width="498" height="309" stroke="#000000" stroke-width="20.625" stroke-miterlimit="8" fill="#FFFFFF" transform="matrix(-1 0 0 1 2872.5 102.5)"/><path d="M-41.4983 57.9377-83.0016 57.9377-154.943 386.399" stroke="#000000" stroke-width="20.625" stroke-miterlimit="8" fill="none" fill-rule="evenodd" transform="matrix(-1 0 0 1 2872.5 102.5)"/><text font-family="CMU Serif,CMU Serif_MSFontService,sans-serif" font-weight="500" font-size="83" transform="matrix(1 0 0 1 2526.18 228)">Error <tspan font-size="83" x="-67.0313" y="101">Handling</tspan></text><path d="M3578.5 628.333C3578.5 553.867 3735.42 493.5 3929 493.5 4122.58 493.5 4279.5 553.867 4279.5 628.333L4279.5 1167.67C4279.5 1242.13 4122.58 1302.5 3929 1302.5 3735.42 1302.5 3578.5 1242.13 3578.5 1167.67Z" fill="#FFFFFF" fill-rule="evenodd"/><path d="M4279.5 628.333C4279.5 702.8 4122.58 763.167 3929 763.167 3735.42 763.167 3578.5 702.8 3578.5 628.333" stroke="#000000" stroke-width="20.625" stroke-miterlimit="8" fill="none" fill-rule="evenodd"/><path d="M3578.5 628.333C3578.5 553.867 3735.42 493.5 3929 493.5 4122.58 493.5 4279.5 553.867 4279.5 628.333L4279.5 1167.67C4279.5 1242.13 4122.58 1302.5 3929 1302.5 3735.42 1302.5 3578.5 1242.13 3578.5 1167.67Z" stroke="#000000" stroke-width="20.625" stroke-miterlimit="8" fill="none" fill-rule="evenodd"/><text font-family="CMU Serif,CMU Serif_MSFontService,sans-serif" font-weight="500" font-size="83" transform="matrix(1 0 0 1 3739.17 987)">Tidy<tspan font-size="83" x="199.375" y="0">Data</tspan></text><rect x="0" y="0" width="759" height="309" stroke="#000000" stroke-width="20.625" stroke-miterlimit="8" fill="#FFFFFF" transform="matrix(-1 0 0 1 1941.5 102.5)"/><path d="M-63.2475 57.9378-126.502 57.9378-139.831 370.312" stroke="#000000" stroke-width="20.625" stroke-miterlimit="8" fill="none" fill-rule="evenodd" transform="matrix(-1 0 0 1 1941.5 102.5)"/><text font-family="Lucida Console,Lucida Console_MSFontService,sans-serif" font-weight="400" font-stretch="semi-condensed" font-size="83" transform="matrix(1 0 0 1 1262.24 235)">purrr<tspan font-size="83" x="249.219" y="0">::</tspan>map<tspan font-size="83" x="498.438" y="0">() </tspan><tspan font-family="CMU Serif,CMU Serif_MSFontService,sans-serif" font-weight="500" font-stretch="normal" font-size="83" x="-24.0625" y="94">oriented</tspan><tspan font-family="CMU Serif,CMU Serif_MSFontService,sans-serif" font-weight="500" font-stretch="normal" font-size="83" x="296.771" y="94">workflow</tspan></text></g></svg>