<svg width="681" height="244" xmlns="http://www.w3.org/2000/svg" xmlns:xlink="http://www.w3.org/1999/xlink" overflow="hidden"><defs><clipPath id="clip0"><rect x="73" y="247" width="681" height="244"/></clipPath><clipPath id="clip1"><rect x="213" y="315" width="62" height="62"/></clipPath><clipPath id="clip2"><rect x="213" y="315" width="62" height="62"/></clipPath><clipPath id="clip3"><rect x="213" y="315" width="62" height="62"/></clipPath><clipPath id="clip4"><rect x="139" y="315" width="61" height="62"/></clipPath><clipPath id="clip5"><rect x="139" y="315" width="61" height="62"/></clipPath><clipPath id="clip6"><rect x="139" y="315" width="61" height="62"/></clipPath><clipPath id="clip7"><rect x="363" y="315" width="62" height="62"/></clipPath><clipPath id="clip8"><rect x="363" y="315" width="62" height="62"/></clipPath><clipPath id="clip9"><rect x="363" y="315" width="62" height="62"/></clipPath><clipPath id="clip10"><rect x="288" y="315" width="62" height="62"/></clipPath><clipPath id="clip11"><rect x="288" y="315" width="62" height="62"/></clipPath><clipPath id="clip12"><rect x="288" y="315" width="62" height="62"/></clipPath><clipPath id="clip13"><rect x="438" y="315" width="62" height="62"/></clipPath><clipPath id="clip14"><rect x="438" y="315" width="62" height="62"/></clipPath><clipPath id="clip15"><rect x="438" y="315" width="62" height="62"/></clipPath><clipPath id="clip16"><rect x="513" y="315" width="61" height="62"/></clipPath><clipPath id="clip17"><rect x="513" y="315" width="61" height="62"/></clipPath><clipPath id="clip18"><rect x="513" y="315" width="61" height="62"/></clipPath><clipPath id="clip19"><rect x="148" y="301" width="122" height="122"/></clipPath><clipPath id="clip20"><rect x="148" y="301" width="122" height="122"/></clipPath><clipPath id="clip21"><rect x="148" y="301" width="122" height="122"/></clipPath><clipPath id="clip22"><rect x="395" y="301" width="122" height="122"/></clipPath><clipPath id="clip23"><rect x="395" y="301" width="122" height="122"/></clipPath><clipPath id="clip24"><rect x="395" y="301" width="122" height="122"/></clipPath></defs><g clip-path="url(#clip0)" transform="translate(-73 -247)"><path d="M0.463894 0 680.819 0 680.819 244 0.463878 244Z" fill="#F2F2F2" transform="matrix(1.00095 0 0 1 72.5357 247)"/><g clip-path="url(#clip1)"><g clip-path="url(#clip2)"><g clip-path="url(#clip3)"><path d="M5.02535 10.6789 5.02535 49.6252 55.2788 49.6252 55.2788 10.6789ZM48.3689 14.4479C49.0629 14.4479 49.6252 15.0103 49.6252 15.7041 49.6252 16.3981 49.0629 16.9605 48.3689 16.9605 47.6751 16.9605 47.1126 16.3981 47.1126 15.7041 47.1126 15.0103 47.6751 14.4479 48.3689 14.4479ZM43.9718 14.4479C44.6656 14.4479 45.2281 15.0103 45.2281 15.7041 45.2281 16.3981 44.6656 16.9605 43.9718 16.9605 43.2778 16.9605 42.7155 16.3981 42.7155 15.7041 42.7155 15.0103 43.2778 14.4479 43.9718 14.4479ZM39.5745 14.4479C40.2685 14.4479 40.8309 15.0103 40.8309 15.7041 40.8309 16.3981 40.2685 16.9605 39.5745 16.9605 38.8807 16.9605 38.3182 16.3981 38.3182 15.7041 38.3182 15.0103 38.8807 14.4479 39.5745 14.4479ZM51.5098 45.8562 8.79436 45.8562 8.79436 20.7295 51.5098 20.7295Z" transform="matrix(1.00095 0 0 1 213.998 315.963)"/></g></g></g><g clip-path="url(#clip4)"><g clip-path="url(#clip5)"><g clip-path="url(#clip6)"><path d="M5.01721 10.6616 5.01721 49.5449 55.1893 49.5449 55.1893 10.6616ZM48.2906 14.4245C48.9834 14.4245 49.5449 14.986 49.5449 15.6788 49.5449 16.3715 48.9834 16.9331 48.2906 16.9331 47.5979 16.9331 47.0364 16.3715 47.0364 15.6788 47.0364 14.986 47.5979 14.4245 48.2906 14.4245ZM43.9007 14.4245C44.5934 14.4245 45.1549 14.986 45.1549 15.6788 45.1549 16.3715 44.5934 16.9331 43.9007 16.9331 43.2079 16.9331 42.6464 16.3715 42.6464 15.6788 42.6464 14.986 43.2079 14.4245 43.9007 14.4245ZM39.5105 14.4245C40.2033 14.4245 40.7648 14.986 40.7648 15.6788 40.7648 16.3715 40.2033 16.9331 39.5105 16.9331 38.8178 16.9331 38.2563 16.3715 38.2563 15.6788 38.2563 14.986 38.8178 14.4245 39.5105 14.4245ZM51.4265 45.7821 8.78012 45.7821 8.78012 20.6961 51.4265 20.6961Z" transform="matrix(1 0 0 1.00162 139.243 315.963)"/></g></g></g><g clip-path="url(#clip7)"><g clip-path="url(#clip8)"><g clip-path="url(#clip9)"><path d="M5.02535 10.6789 5.02535 49.6252 55.2788 49.6252 55.2788 10.6789ZM48.3689 14.4479C49.0629 14.4479 49.6252 15.0103 49.6252 15.7041 49.6252 16.3981 49.0629 16.9605 48.3689 16.9605 47.6751 16.9605 47.1126 16.3981 47.1126 15.7041 47.1126 15.0103 47.6751 14.4479 48.3689 14.4479ZM43.9718 14.4479C44.6656 14.4479 45.2281 15.0103 45.2281 15.7041 45.2281 16.3981 44.6656 16.9605 43.9718 16.9605 43.2778 16.9605 42.7155 16.3981 42.7155 15.7041 42.7155 15.0103 43.2778 14.4479 43.9718 14.4479ZM39.5745 14.4479C40.2685 14.4479 40.8309 15.0103 40.8309 15.7041 40.8309 16.3981 40.2685 16.9605 39.5745 16.9605 38.8807 16.9605 38.3182 16.3981 38.3182 15.7041 38.3182 15.0103 38.8807 14.4479 39.5745 14.4479ZM51.5098 45.8562 8.79436 45.8562 8.79436 20.7295 51.5098 20.7295Z" transform="matrix(1.00095 0 0 1 363.818 315.963)"/></g></g></g><g clip-path="url(#clip10)"><g clip-path="url(#clip11)"><g clip-path="url(#clip12)"><path d="M5.02535 10.6789 5.02535 49.6252 55.2788 49.6252 55.2788 10.6789ZM48.3689 14.4479C49.0629 14.4479 49.6252 15.0103 49.6252 15.7041 49.6252 16.3981 49.0629 16.9605 48.3689 16.9605 47.6751 16.9605 47.1126 16.3981 47.1126 15.7041 47.1126 15.0103 47.6751 14.4479 48.3689 14.4479ZM43.9718 14.4479C44.6656 14.4479 45.2281 15.0103 45.2281 15.7041 45.2281 16.3981 44.6656 16.9605 43.9718 16.9605 43.2778 16.9605 42.7155 16.3981 42.7155 15.7041 42.7155 15.0103 43.2778 14.4479 43.9718 14.4479ZM39.5745 14.4479C40.2685 14.4479 40.8309 15.0103 40.8309 15.7041 40.8309 16.3981 40.2685 16.9605 39.5745 16.9605 38.8807 16.9605 38.3182 16.3981 38.3182 15.7041 38.3182 15.0103 38.8807 14.4479 39.5745 14.4479ZM51.5098 45.8562 8.79436 45.8562 8.79436 20.7295 51.5098 20.7295Z" transform="matrix(1.00095 0 0 1 288.908 315.963)"/></g></g></g><g clip-path="url(#clip13)"><g clip-path="url(#clip14)"><g clip-path="url(#clip15)"><path d="M5.01722 10.6616 5.01722 49.5451 55.1893 49.5451 55.1893 10.6616ZM48.2908 14.4245C48.9834 14.4245 49.5451 14.9861 49.5451 15.6788 49.5451 16.3715 48.9834 16.9331 48.2908 16.9331 47.598 16.9331 47.0364 16.3715 47.0364 15.6788 47.0364 14.9861 47.598 14.4245 48.2908 14.4245ZM43.9007 14.4245C44.5934 14.4245 45.1549 14.9861 45.1549 15.6788 45.1549 16.3715 44.5934 16.9331 43.9007 16.9331 43.2079 16.9331 42.6464 16.3715 42.6464 15.6788 42.6464 14.9861 43.2079 14.4245 43.9007 14.4245ZM39.5105 14.4245C40.2033 14.4245 40.765 14.9861 40.765 15.6788 40.765 16.3715 40.2033 16.9331 39.5105 16.9331 38.8178 16.9331 38.2563 16.3715 38.2563 15.6788 38.2563 14.9861 38.8178 14.4245 39.5105 14.4245ZM51.4265 45.7821 8.78013 45.7821 8.78013 20.6961 51.4265 20.6961Z" transform="matrix(1 0 0 1.00162 438.728 315.963)"/></g></g></g><g clip-path="url(#clip16)"><g clip-path="url(#clip17)"><g clip-path="url(#clip18)"><path d="M445.555 79.642 445.555 118.589 495.809 118.589 495.809 79.642ZM488.898 83.411C489.593 83.411 490.155 83.9736 490.155 84.6674 490.155 85.3613 489.593 85.9237 488.898 85.9237 488.206 85.9237 487.643 85.3613 487.643 84.6674 487.643 83.9736 488.206 83.411 488.898 83.411ZM484.502 83.411C485.195 83.411 485.758 83.9736 485.758 84.6674 485.758 85.3613 485.195 85.9237 484.502 85.9237 483.808 85.9237 483.245 85.3613 483.245 84.6674 483.245 83.9736 483.808 83.411 484.502 83.411ZM480.105 83.411C480.799 83.411 481.36 83.9736 481.36 84.6674 481.36 85.3613 480.799 85.9237 480.105 85.9237 479.411 85.9237 478.848 85.3613 478.848 84.6674 478.848 83.9736 479.411 83.411 480.105 83.411ZM492.04 114.819 449.325 114.819 449.325 89.6927 492.04 89.6927Z" transform="matrix(1.00095 0 0 1 72.5357 247)"/></g></g></g><path d="M23.3485 138.855C23.3485 131.339 29.4408 125.247 36.9558 125.247L511.194 125.247C518.709 125.247 524.801 131.339 524.801 138.855L524.801 138.855C524.801 146.37 518.709 152.462 511.194 152.462L36.9558 152.461C29.4408 152.461 23.3485 146.369 23.3485 138.854Z" stroke="#000000" stroke-width="4.25222" stroke-miterlimit="8" fill="none" fill-rule="evenodd" transform="matrix(1.00095 0 0 1 72.5357 247)"/><g clip-path="url(#clip19)"><g clip-path="url(#clip20)"><g clip-path="url(#clip21)"><path d="M114.65 46.4965C114.573 45.3702 113.753 44.4342 112.647 44.2082L99.3669 41.4967C98.541 41.3257 97.6847 41.5831 97.0899 42.1811L94.4072 44.8626 76.5732 27.0286C76.3579 30.6828 74.3855 34.0062 71.2807 35.9457L87.3025 51.9673 84.7116 54.5596C84.123 55.1482 83.8644 55.9901 84.0209 56.8076L86.5892 70.2258C86.8041 71.3476 87.7492 72.1831 88.8888 72.2592L102.209 73.1471C102.265 73.1471 102.322 73.1533 102.379 73.1533 103.766 73.1988 104.927 72.1111 104.973 70.7239 105.018 69.3365 103.93 68.1752 102.543 68.1297L91.157 67.3761 89.204 57.1718 99.6871 46.6887 109.767 48.7421 110.528 60.1509C110.621 61.5361 111.818 62.5842 113.203 62.492 114.588 62.3996 115.637 61.2019 115.544 59.8169Z" stroke="#FFFFFF" stroke-width="1.25589" transform="matrix(1 0 0 1.00033 148.374 301.428)"/><path d="M53.9302 63.9776C53.9313 59.9405 52.7769 55.9873 50.6034 52.5853L41.7416 63.1727C37.1561 68.6693 28.9829 69.4078 23.4863 64.8222 17.9897 60.2368 17.2511 52.0635 21.8366 46.5669 22.3356 45.9687 22.8876 45.4168 23.4857 44.9178L23.8122 44.644C16.2406 48.0993 11.3816 55.6549 11.3786 63.9776L11.3786 87.9142 53.9302 87.9142Z" stroke="#FFFFFF" stroke-width="1.25589" transform="matrix(1 0 0 1.00033 148.374 301.428)"/><path d="M54.0044 26.3742C54.0044 25.6098 54.0818 24.8474 54.2355 24.0986L25.9008 47.8065C22.009 51.0673 21.4975 56.8657 24.7584 60.7574 28.0191 64.6493 33.8175 65.1607 37.7094 61.8998 38.123 61.5534 38.5053 61.171 38.8518 60.7574L59.5154 36.0624C56.1033 34.0262 54.0109 30.3478 54.0044 26.3742ZM35.069 55.1423C34.0882 56.1234 32.4978 56.1237 31.5167 55.1427 30.5356 54.1621 30.5354 52.5717 31.5161 51.5905 32.497 50.6094 34.0873 50.6091 35.0684 51.5901 35.0686 51.5902 35.0689 51.5904 35.069 51.5905 36.0495 52.5713 36.0495 54.1615 35.069 55.1423Z" stroke="#FFFFFF" stroke-width="1.25589" transform="matrix(1 0 0 1.00033 148.374 301.428)"/><path d="M54.0044 92.9378 11.3033 92.9378C8.52875 92.9378 6.27958 95.1871 6.27958 97.9615L6.27958 102.985 59.0281 102.985 59.0281 97.9615C59.0281 95.1871 56.7788 92.9378 54.0044 92.9378Z" stroke="#FFFFFF" stroke-width="1.25589" transform="matrix(1 0 0 1.00033 148.374 301.428)"/><path d="M65.3077 18.8388C61.1459 18.8388 57.7722 22.2125 57.7722 26.3742 57.7722 30.536 61.1459 33.9098 65.3077 33.9098 69.4694 33.9098 72.8432 30.536 72.8432 26.3742 72.8432 22.2125 69.4694 18.8388 65.3077 18.8388ZM65.3077 28.2581C64.2672 28.2581 63.4239 27.4146 63.4239 26.3742 63.4239 25.3338 64.2672 24.4903 65.3077 24.4903 66.3481 24.4903 67.1915 25.3338 67.1915 26.3742 67.1915 27.4146 66.3481 28.2581 65.3077 28.2581Z" stroke="#FFFFFF" stroke-width="1.25589" transform="matrix(1 0 0 1.00033 148.374 301.428)"/></g></g></g><path d="M11.4423 11.4423 166.996 11.4423 166.996 57.8302 11.4423 57.8302Z" fill="#F2F2F2" transform="matrix(1.00095 0 0 1 72.5357 247)"/><text font-family="CMU Serif,CMU Serif_MSFontService,sans-serif" font-weight="500" font-size="110" transform="matrix(0.154773 0 0 0.154626 97.7574 276)">Automation <tspan font-size="110" x="614.167" y="0">with</tspan><tspan font-family="Lucida Console,Lucida Console_MSFontService,sans-serif" font-weight="400" font-stretch="semi-condensed" font-size="110" x="48.4" y="142.279">scrapurrr</tspan><tspan font-family="Lucida Console,Lucida Console_MSFontService,sans-serif" font-weight="400" font-stretch="semi-condensed" font-size="110" x="646.525" y="142.279">()</tspan></text><g clip-path="url(#clip22)"><g clip-path="url(#clip23)"><g clip-path="url(#clip24)"><path d="M437.238 101.095C437.16 99.9684 436.341 99.0322 435.235 98.8061L421.95 96.0936C421.124 95.9226 420.268 96.1801 419.672 96.7783L416.99 99.4606 399.149 81.6206C398.934 85.2762 396.961 88.6006 393.854 90.5407L409.881 106.568 407.29 109.161C406.701 109.75 406.442 110.592 406.599 111.41L409.169 124.832C409.383 125.955 410.328 126.79 411.468 126.866L424.793 127.755C424.849 127.755 424.906 127.761 424.964 127.761 426.351 127.806 427.512 126.718 427.558 125.33 427.603 123.943 426.514 122.781 425.127 122.736L413.738 121.982 411.783 111.774 422.27 101.287 432.353 103.341 433.115 114.754C433.208 116.14 434.405 117.188 435.791 117.096 437.178 117.004 438.226 115.806 438.133 114.42Z" stroke="#FFFFFF" stroke-width="1.25631" transform="matrix(1.00095 0 0 1 72.5357 247)"/><path d="M376.499 118.582C376.499 114.544 375.344 110.589 373.17 107.186L364.305 117.777C359.719 123.275 351.542 124.014 346.044 119.427 340.545 114.84 339.806 106.664 344.394 101.166 344.894 100.567 345.446 100.015 346.044 99.516L346.37 99.242C338.797 102.698 333.935 110.257 333.932 118.582L333.932 142.527 376.499 142.527Z" stroke="#FFFFFF" stroke-width="1.25631" transform="matrix(1.00095 0 0 1 72.5357 247)"/><path d="M376.572 80.9661C376.572 80.2013 376.651 79.4387 376.804 78.6897L348.459 102.405C344.566 105.667 344.055 111.468 347.317 115.361 350.579 119.254 356.379 119.766 360.273 116.504 360.685 116.157 361.067 115.775 361.415 115.361L382.086 90.6574C378.672 88.6206 376.58 84.9411 376.572 80.9661ZM357.63 109.744C356.65 110.725 355.059 110.725 354.077 109.744 353.096 108.763 353.095 107.172 354.077 106.191 355.057 105.209 356.648 105.209 357.63 106.19 357.63 106.19 357.63 106.191 357.63 106.191 358.612 107.172 358.612 108.763 357.63 109.744Z" stroke="#FFFFFF" stroke-width="1.25631" transform="matrix(1.00095 0 0 1 72.5357 247)"/><path d="M376.572 147.552 333.856 147.552C331.082 147.552 328.831 149.802 328.831 152.577L328.831 157.603 381.597 157.603 381.597 152.577C381.597 149.802 379.347 147.552 376.572 147.552Z" stroke="#FFFFFF" stroke-width="1.25631" transform="matrix(1.00095 0 0 1 72.5357 247)"/><path d="M387.88 73.4281C383.717 73.4281 380.342 76.8029 380.342 80.9661 380.342 85.1293 383.717 88.5041 387.88 88.5041 392.042 88.5041 395.418 85.1293 395.418 80.9661 395.418 76.8029 392.042 73.4281 387.88 73.4281ZM387.88 82.8505C386.839 82.8505 385.995 82.0069 385.995 80.9661 385.995 79.9253 386.839 79.0817 387.88 79.0817 388.92 79.0817 389.764 79.9253 389.764 80.9661 389.764 82.0069 388.92 82.8505 387.88 82.8505Z" stroke="#FFFFFF" stroke-width="1.25631" transform="matrix(1.00095 0 0 1 72.5357 247)"/></g></g></g><path d="M136.148 174.186 269.281 174.186 269.281 225.986 136.148 225.986Z" stroke="#000000" stroke-width="3.18916" stroke-miterlimit="8" fill="#FFFFFF" transform="matrix(1.00095 0 0 1 72.5357 247)"/><path d="M125.054 183.898 113.959 183.898 104.537 160.378" stroke="#000000" stroke-width="3.18916" stroke-miterlimit="8" fill="none" fill-rule="evenodd" transform="matrix(1.00095 0 0 1 72.5357 247)"/><text font-family="CMU Serif,CMU Serif_MSFontService,sans-serif" font-weight="500" font-size="83" transform="matrix(0.154773 0 0 0.154626 218.562 443)">User <tspan font-size="83" x="190.781" y="0">defined</tspan><tspan font-size="83" x="477.24" y="0">flexible </tspan><tspan font-family="Lucida Console,Lucida Console_MSFontService,sans-serif" font-weight="400" font-stretch="semi-condensed" font-size="83" x="92.8124" y="103.475">scrapefun</tspan><tspan font-family="Lucida Console,Lucida Console_MSFontService,sans-serif" font-weight="400" font-stretch="semi-condensed" font-size="83" x="541.406" y="103.475">()</tspan></text><path d="M382.932 174.186 479.109 174.186 479.109 225.986 382.932 225.986Z" stroke="#000000" stroke-width="3.18916" stroke-miterlimit="8" fill="#FFFFFF" transform="matrix(1.00095 0 0 1 72.5357 247)"/><path d="M374.917 183.898 366.901 183.898 358.68 164.64" stroke="#000000" stroke-width="3.18916" stroke-miterlimit="8" fill="none" fill-rule="evenodd" transform="matrix(1.00095 0 0 1 72.5357 247)"/><text font-family="CMU Serif,CMU Serif_MSFontService,sans-serif" font-weight="500" font-size="83" transform="matrix(0.154773 0 0 0.154626 482.447 435)">Parallel <tspan font-size="83" x="-80.7811" y="97.0082">Workers via </tspan><tspan font-family="Lucida Console,Lucida Console_MSFontService,sans-serif" font-weight="400" font-stretch="semi-condensed" font-size="83" x="14.0481" y="200.484">f</tspan><tspan font-family="Lucida Console,Lucida Console_MSFontService,sans-serif" font-weight="400" font-stretch="semi-condensed" font-size="83" x="63.8918" y="200.484">urrr</tspan></text><path d="M472.353 94.2335 472.658 99.3686 471.497 99.3964 472.666 104.235 471.457 104.365 472.169 111.866 468.356 104.541 469.79 104.472 467.463 99.8351 469.215 99.5951 466.747 94.7189Z" stroke="#000000" stroke-width="0.708703" stroke-miterlimit="8" fill-rule="evenodd" transform="matrix(1.00095 0 0 1 72.5357 247)"/><path d="M0 0 77.0038 0 77.0038 47.7795 0 47.7795Z" stroke="#000000" stroke-width="3.18916" stroke-miterlimit="8" fill="#FFFFFF" transform="matrix(-1.00095 0 0 1 517.12 262.849)"/><path d="M-6.41672 8.95868-12.8342 8.95868-23.9582 59.7474" stroke="#000000" stroke-width="3.18916" stroke-miterlimit="8" fill="none" fill-rule="evenodd" transform="matrix(-1.00095 0 0 1 517.12 262.849)"/><text font-family="CMU Serif,CMU Serif_MSFontService,sans-serif" font-weight="500" font-size="83" transform="matrix(0.154773 0 0 0.154626 463.519 282)">Error <tspan font-size="83" x="-67.0312" y="103.475">Handling</tspan></text><path d="M553.33 97.1567C553.33 85.6423 577.593 76.308 607.526 76.308 637.459 76.308 661.722 85.6423 661.722 97.1567L661.722 180.552C661.722 192.066 637.459 201.401 607.526 201.401 577.593 201.401 553.33 192.066 553.33 180.552Z" fill="#FFFFFF" fill-rule="evenodd" transform="matrix(1.00095 0 0 1 72.5357 247)"/><path d="M661.722 97.1567C661.722 108.671 637.459 118.006 607.526 118.006 577.593 118.006 553.33 108.671 553.33 97.1567" stroke="#000000" stroke-width="3.18916" stroke-miterlimit="8" fill="none" fill-rule="evenodd" transform="matrix(1.00095 0 0 1 72.5357 247)"/><path d="M553.33 97.1567C553.33 85.6423 577.593 76.308 607.526 76.308 637.459 76.308 661.722 85.6423 661.722 97.1567L661.722 180.552C661.722 192.066 637.459 201.401 607.526 201.401 577.593 201.401 553.33 192.066 553.33 180.552Z" stroke="#000000" stroke-width="3.18916" stroke-miterlimit="8" fill="none" fill-rule="evenodd" transform="matrix(1.00095 0 0 1 72.5357 247)"/><text font-family="CMU Serif,CMU Serif_MSFontService,sans-serif" font-weight="500" font-size="83" transform="matrix(0.154773 0 0 0.154626 651.257 400)">Tidy<tspan font-size="83" x="199.375" y="0">Data</tspan></text><path d="M0 0 117.361 0 117.361 47.7795 0 47.7795Z" stroke="#000000" stroke-width="3.18916" stroke-miterlimit="8" fill="#FFFFFF" transform="matrix(-1.00095 0 0 1 373.027 262.849)"/><path d="M-9.77972 8.9587-19.5605 8.9587-21.6215 57.2599" stroke="#000000" stroke-width="3.18916" stroke-miterlimit="8" fill="none" fill-rule="evenodd" transform="matrix(-1.00095 0 0 1 373.027 262.849)"/><text font-family="Lucida Console,Lucida Console_MSFontService,sans-serif" font-weight="400" font-stretch="semi-condensed" font-size="83" transform="matrix(0.154773 0 0 0.154626 267.896 283)">purrr<tspan font-size="83" x="249.219" y="0">::</tspan><tspan font-size="83" x="349.219" y="0">map</tspan><tspan font-size="83" x="498.438" y="0">() </tspan><tspan font-family="CMU Serif,CMU Serif_MSFontService,sans-serif" font-weight="500" font-stretch="normal" font-size="83" x="-24.0625" y="97.0082">oriented</tspan><tspan font-family="CMU Serif,CMU Serif_MSFontService,sans-serif" font-weight="500" font-stretch="normal" font-size="83" x="296.771" y="97.0082">workflow</tspan></text></g></svg>