<svg width="4400" height="2471" xmlns="http://www.w3.org/2000/svg" xmlns:xlink="http://www.w3.org/1999/xlink" overflow="hidden"><defs><clipPath id="clip0"><rect x="3" y="2" width="4400" height="2471"/></clipPath><clipPath id="clip1"><rect x="914" y="445" width="390" height="391"/></clipPath><clipPath id="clip2"><rect x="914" y="445" width="390" height="391"/></clipPath><clipPath id="clip3"><rect x="914" y="445" width="390" height="391"/></clipPath><clipPath id="clip4"><rect x="431" y="445" width="389" height="391"/></clipPath><clipPath id="clip5"><rect x="431" y="445" width="389" height="391"/></clipPath><clipPath id="clip6"><rect x="431" y="445" width="389" height="391"/></clipPath><clipPath id="clip7"><rect x="1882" y="445" width="390" height="391"/></clipPath><clipPath id="clip8"><rect x="1882" y="445" width="390" height="391"/></clipPath><clipPath id="clip9"><rect x="1882" y="445" width="390" height="391"/></clipPath><clipPath id="clip10"><rect x="1398" y="445" width="390" height="391"/></clipPath><clipPath id="clip11"><rect x="1398" y="445" width="390" height="391"/></clipPath><clipPath id="clip12"><rect x="1398" y="445" width="390" height="391"/></clipPath><clipPath id="clip13"><rect x="2366" y="445" width="390" height="391"/></clipPath><clipPath id="clip14"><rect x="2366" y="445" width="390" height="391"/></clipPath><clipPath id="clip15"><rect x="2366" y="445" width="390" height="391"/></clipPath><clipPath id="clip16"><rect x="2849" y="445" width="391" height="391"/></clipPath><clipPath id="clip17"><rect x="2849" y="445" width="391" height="391"/></clipPath><clipPath id="clip18"><rect x="2849" y="445" width="391" height="391"/></clipPath><clipPath id="clip19"><rect x="489" y="352" width="781" height="780"/></clipPath><clipPath id="clip20"><rect x="489" y="352" width="781" height="780"/></clipPath><clipPath id="clip21"><rect x="489" y="352" width="781" height="780"/></clipPath><clipPath id="clip22"><rect x="2085" y="353" width="781" height="780"/></clipPath><clipPath id="clip23"><rect x="2085" y="353" width="781" height="780"/></clipPath><clipPath id="clip24"><rect x="2085" y="353" width="781" height="780"/></clipPath><clipPath id="clip25"><rect x="3283" y="1621" width="390" height="389"/></clipPath><clipPath id="clip26"><rect x="3283" y="1621" width="390" height="389"/></clipPath><clipPath id="clip27"><rect x="3283" y="1621" width="390" height="389"/></clipPath><clipPath id="clip28"><rect x="2176" y="1621" width="391" height="389"/></clipPath><clipPath id="clip29"><rect x="2176" y="1621" width="391" height="389"/></clipPath><clipPath id="clip30"><rect x="2176" y="1621" width="391" height="389"/></clipPath><clipPath id="clip31"><rect x="2173" y="2061" width="390" height="390"/></clipPath><clipPath id="clip32"><rect x="2173" y="2061" width="390" height="390"/></clipPath><clipPath id="clip33"><rect x="2173" y="2061" width="390" height="390"/></clipPath><clipPath id="clip34"><rect x="1134" y="1621" width="390" height="389"/></clipPath><clipPath id="clip35"><rect x="1134" y="1621" width="390" height="389"/></clipPath><clipPath id="clip36"><rect x="1134" y="1621" width="390" height="389"/></clipPath><clipPath id="clip37"><rect x="1134" y="2060" width="390" height="390"/></clipPath><clipPath id="clip38"><rect x="1134" y="2060" width="390" height="390"/></clipPath><clipPath id="clip39"><rect x="1134" y="2060" width="390" height="390"/></clipPath><clipPath id="clip40"><rect x="3280" y="1998" width="389" height="392"/></clipPath><clipPath id="clip41"><rect x="3280" y="1998" width="389" height="392"/></clipPath><clipPath id="clip42"><rect x="3280" y="1998" width="389" height="392"/></clipPath><clipPath id="clip43"><rect x="133" y="2090" width="331" height="330"/></clipPath><clipPath id="clip44"><rect x="133" y="2090" width="331" height="330"/></clipPath><clipPath id="clip45"><rect x="133" y="2090" width="331" height="330"/></clipPath></defs><g clip-path="url(#clip0)" transform="translate(-3 -2)"><rect x="3.0001" y="2.00007" width="4400" height="1579" fill="#F2F2F2"/><rect x="3.0001" y="1581" width="4400" height="892" fill="#F2F2F2"/><text font-family="CMU Serif,CMU Serif_MSFontService,sans-serif" font-weight="500" font-size="110" transform="matrix(1 0 0 1 184.72 1766)">Writing a<tspan font-family="Lucida Console,Lucida Console_MSFontService,sans-serif" font-weight="400" font-stretch="semi-condensed" font-size="110" x="0" y="135">scrapefun</tspan><tspan font-family="Lucida Console,Lucida Console_MSFontService,sans-serif" font-weight="400" font-stretch="semi-condensed" font-size="110" x="598.125" y="135">()</tspan></text><g clip-path="url(#clip1)"><g clip-path="url(#clip2)"><g clip-path="url(#clip3)"><path d="M32.5 69.0625 32.5 320.937 357.5 320.937 357.5 69.0625ZM312.812 93.4375C317.3 93.4375 320.937 97.075 320.937 101.562 320.937 106.05 317.3 109.687 312.812 109.687 308.325 109.687 304.687 106.05 304.687 101.562 304.687 97.075 308.325 93.4375 312.812 93.4375ZM284.375 93.4375C288.862 93.4375 292.5 97.075 292.5 101.562 292.5 106.05 288.862 109.687 284.375 109.687 279.887 109.687 276.25 106.05 276.25 101.562 276.25 97.075 279.887 93.4375 284.375 93.4375ZM255.937 93.4375C260.425 93.4375 264.062 97.075 264.062 101.562 264.062 106.05 260.425 109.687 255.937 109.687 251.45 109.687 247.812 106.05 247.812 101.562 247.812 97.075 251.45 93.4375 255.937 93.4375ZM333.125 296.562 56.875 296.562 56.875 134.062 333.125 134.062Z" transform="matrix(1 0 0 1 914 446)"/></g></g></g><g clip-path="url(#clip4)"><g clip-path="url(#clip5)"><g clip-path="url(#clip6)"><path d="M32.4166 68.8854 32.4166 320.114 356.583 320.114 356.583 68.8854ZM312.01 93.1979C316.486 93.1979 320.114 96.8261 320.114 101.302 320.114 105.778 316.486 109.406 312.01 109.406 307.534 109.406 303.906 105.778 303.906 101.302 303.906 96.8261 307.534 93.1979 312.01 93.1979ZM283.646 93.1979C288.122 93.1979 291.75 96.8261 291.75 101.302 291.75 105.778 288.122 109.406 283.646 109.406 279.17 109.406 275.542 105.778 275.542 101.302 275.542 96.8261 279.17 93.1979 283.646 93.1979ZM255.281 93.1979C259.757 93.1979 263.385 96.8261 263.385 101.302 263.385 105.778 259.757 109.406 255.281 109.406 250.805 109.406 247.177 105.778 247.177 101.302 247.177 96.8261 250.805 93.1979 255.281 93.1979ZM332.271 295.802 56.7291 295.802 56.7291 133.719 332.271 133.719Z" transform="matrix(1 0 0 1.00257 431 446)"/></g></g></g><g clip-path="url(#clip7)"><g clip-path="url(#clip8)"><g clip-path="url(#clip9)"><path d="M32.5 69.0625 32.5 320.937 357.5 320.937 357.5 69.0625ZM312.812 93.4375C317.3 93.4375 320.937 97.075 320.937 101.562 320.937 106.05 317.3 109.687 312.812 109.687 308.325 109.687 304.687 106.05 304.687 101.562 304.687 97.075 308.325 93.4375 312.812 93.4375ZM284.375 93.4375C288.862 93.4375 292.5 97.075 292.5 101.562 292.5 106.05 288.862 109.687 284.375 109.687 279.887 109.687 276.25 106.05 276.25 101.562 276.25 97.075 279.887 93.4375 284.375 93.4375ZM255.937 93.4375C260.425 93.4375 264.062 97.075 264.062 101.562 264.062 106.05 260.425 109.687 255.937 109.687 251.45 109.687 247.812 106.05 247.812 101.562 247.812 97.075 251.45 93.4375 255.937 93.4375ZM333.125 296.562 56.875 296.562 56.875 134.062 333.125 134.062Z" transform="matrix(1 0 0 1 1882 446)"/></g></g></g><g clip-path="url(#clip10)"><g clip-path="url(#clip11)"><g clip-path="url(#clip12)"><path d="M32.5 69.0625 32.5 320.937 357.5 320.937 357.5 69.0625ZM312.812 93.4375C317.3 93.4375 320.937 97.075 320.937 101.562 320.937 106.05 317.3 109.687 312.812 109.687 308.325 109.687 304.687 106.05 304.687 101.562 304.687 97.075 308.325 93.4375 312.812 93.4375ZM284.375 93.4375C288.862 93.4375 292.5 97.075 292.5 101.562 292.5 106.05 288.862 109.687 284.375 109.687 279.887 109.687 276.25 106.05 276.25 101.562 276.25 97.075 279.887 93.4375 284.375 93.4375ZM255.937 93.4375C260.425 93.4375 264.062 97.075 264.062 101.562 264.062 106.05 260.425 109.687 255.937 109.687 251.45 109.687 247.812 106.05 247.812 101.562 247.812 97.075 251.45 93.4375 255.937 93.4375ZM333.125 296.562 56.875 296.562 56.875 134.062 333.125 134.062Z" transform="matrix(1 0 0 1 1398 446)"/></g></g></g><g clip-path="url(#clip13)"><g clip-path="url(#clip14)"><g clip-path="url(#clip15)"><path d="M32.4167 68.8854 32.4167 320.115 356.583 320.115 356.583 68.8854ZM312.011 93.198C316.486 93.198 320.115 96.8262 320.115 101.302 320.115 105.778 316.486 109.406 312.011 109.406 307.535 109.406 303.906 105.778 303.906 101.302 303.906 96.8262 307.535 93.198 312.011 93.198ZM283.646 93.198C288.122 93.198 291.75 96.8262 291.75 101.302 291.75 105.778 288.122 109.406 283.646 109.406 279.17 109.406 275.542 105.778 275.542 101.302 275.542 96.8262 279.17 93.198 283.646 93.198ZM255.281 93.198C259.757 93.198 263.386 96.8262 263.386 101.302 263.386 105.778 259.757 109.406 255.281 109.406 250.805 109.406 247.177 105.778 247.177 101.302 247.177 96.8262 250.805 93.198 255.281 93.198ZM332.271 295.802 56.7292 295.802 56.7292 133.719 332.271 133.719Z" transform="matrix(1 0 0 1.00257 2366 446)"/></g></g></g><g clip-path="url(#clip16)"><g clip-path="url(#clip17)"><g clip-path="url(#clip18)"><path d="M2881.5 515.062 2881.5 766.938 3206.5 766.938 3206.5 515.062ZM3161.81 539.437C3166.3 539.437 3169.94 543.075 3169.94 547.562 3169.94 552.05 3166.3 555.687 3161.81 555.687 3157.33 555.687 3153.69 552.05 3153.69 547.562 3153.69 543.075 3157.33 539.437 3161.81 539.437ZM3133.38 539.437C3137.86 539.437 3141.5 543.075 3141.5 547.562 3141.5 552.05 3137.86 555.687 3133.38 555.687 3128.89 555.687 3125.25 552.05 3125.25 547.562 3125.25 543.075 3128.89 539.437 3133.38 539.437ZM3104.94 539.437C3109.43 539.437 3113.06 543.075 3113.06 547.562 3113.06 552.05 3109.43 555.687 3104.94 555.687 3100.45 555.687 3096.81 552.05 3096.81 547.562 3096.81 543.075 3100.45 539.437 3104.94 539.437ZM3182.13 742.562 2905.88 742.562 2905.88 580.062 3182.13 580.062Z"/></g></g></g><path d="M151 898.002C151 849.4 190.4 810 239.001 810L3306 810C3354.6 810 3394 849.4 3394 898.002L3394 898.002C3394 946.604 3354.6 986.003 3306 986.003L239.001 986C190.4 986 151 946.6 151 897.998Z" stroke="#000000" stroke-width="27.5" stroke-miterlimit="8" fill="none" fill-rule="evenodd"/><g clip-path="url(#clip19)"><g clip-path="url(#clip20)"><g clip-path="url(#clip21)"><path d="M740.764 300.418C740.263 293.141 734.968 287.093 727.822 285.633L642.018 268.114C636.682 267.009 631.149 268.672 627.306 272.536L609.973 289.861 494.746 174.634C493.355 198.244 480.611 219.717 460.551 232.248L564.069 335.765 547.329 352.514C543.526 356.317 541.855 361.757 542.866 367.039L559.46 453.735C560.849 460.983 566.955 466.381 574.318 466.873L660.381 472.61C660.746 472.61 661.112 472.65 661.477 472.65 670.44 472.944 677.944 465.916 678.237 456.953 678.531 447.989 671.503 440.486 662.54 440.192L588.973 435.323 576.355 369.392 644.087 301.66 709.215 314.927 714.132 388.64C714.729 397.59 722.467 404.362 731.416 403.766 740.366 403.169 747.138 395.431 746.542 386.482Z" stroke="#FFFFFF" stroke-width="8.11443" transform="matrix(1 0 0 1.00128 490 352)"/><path d="M348.448 413.365C348.455 387.281 340.996 361.739 326.953 339.758L269.696 408.164C240.069 443.678 187.261 448.45 151.747 418.822 116.233 389.195 111.461 336.387 141.088 300.873 144.312 297.008 147.879 293.442 151.743 290.218L153.853 288.449C104.932 310.774 73.5376 359.591 73.5182 413.365L73.5182 568.021 348.448 568.021Z" stroke="#FFFFFF" stroke-width="8.11443" transform="matrix(1 0 0 1.00128 490 352)"/><path d="M348.927 170.406C348.927 165.467 349.427 160.541 350.42 155.703L167.347 308.882C142.202 329.95 138.897 367.414 159.966 392.559 181.034 417.705 218.498 421.009 243.644 399.94 246.316 397.702 248.786 395.231 251.025 392.559L384.534 233.002C362.488 219.846 348.969 196.08 348.927 170.406ZM226.584 356.279C220.247 362.618 209.971 362.62 203.632 356.282 197.293 349.946 197.292 339.67 203.628 333.331 209.966 326.992 220.241 326.99 226.58 333.328 226.581 333.329 226.583 333.33 226.584 333.331 232.919 339.668 232.919 349.942 226.584 356.279Z" stroke="#FFFFFF" stroke-width="8.11443" transform="matrix(1 0 0 1.00128 490 352)"/><path d="M348.927 600.479 73.0313 600.479C55.105 600.479 40.5729 615.012 40.5729 632.938L40.5729 665.396 381.386 665.396 381.386 632.938C381.386 615.012 366.853 600.479 348.927 600.479Z" stroke="#FFFFFF" stroke-width="8.11443" transform="matrix(1 0 0 1.00128 490 352)"/><path d="M421.959 121.719C395.069 121.719 373.271 143.517 373.271 170.406 373.271 197.296 395.069 219.094 421.959 219.094 448.848 219.094 470.646 197.296 470.646 170.406 470.646 143.517 448.848 121.719 421.959 121.719ZM421.959 182.578C415.236 182.578 409.787 177.128 409.787 170.406 409.787 163.684 415.236 158.234 421.959 158.234 428.681 158.234 434.13 163.684 434.13 170.406 434.13 177.128 428.681 182.578 421.959 182.578Z" stroke="#FFFFFF" stroke-width="8.11443" transform="matrix(1 0 0 1.00128 490 352)"/></g></g></g><rect x="73.9999" y="73.9999" width="1006" height="300" fill="#F2F2F2"/><text font-family="CMU Serif,CMU Serif_MSFontService,sans-serif" font-weight="500" font-size="110" transform="matrix(1 0 0 1 162.96 188)">Automation <tspan font-size="110" x="614.167" y="0">with</tspan><tspan font-family="Lucida Console,Lucida Console_MSFontService,sans-serif" font-weight="400" font-stretch="semi-condensed" font-size="110" x="48.4" y="139">do_scrape</tspan><tspan font-family="Lucida Console,Lucida Console_MSFontService,sans-serif" font-weight="400" font-stretch="semi-condensed" font-size="110" x="646.525" y="139">() </tspan></text><g clip-path="url(#clip22)"><g clip-path="url(#clip23)"><g clip-path="url(#clip24)"><path d="M2827.71 653.804C2827.21 646.517 2821.91 640.462 2814.76 639L2728.84 621.458C2723.5 620.352 2717.96 622.017 2714.11 625.886L2696.76 643.233 2581.38 527.858C2579.99 551.499 2567.23 572.999 2547.14 585.546L2650.79 689.196 2634.03 705.966C2630.22 709.774 2628.55 715.221 2629.56 720.51L2646.18 807.318C2647.57 814.575 2653.68 819.979 2661.05 820.472L2747.23 826.216C2747.59 826.216 2747.96 826.257 2748.33 826.257 2757.3 826.551 2764.81 819.514 2765.11 810.539 2765.4 801.564 2758.36 794.051 2749.39 793.757L2675.73 788.882 2663.09 722.866 2730.91 655.047 2796.12 668.331 2801.05 742.139C2801.65 751.1 2809.39 757.881 2818.35 757.284 2827.32 756.687 2834.1 748.939 2833.5 739.978Z" stroke="#FFFFFF" stroke-width="8.12485"/><path d="M2434.9 766.896C2434.9 740.778 2427.43 715.204 2413.37 693.194L2356.04 761.688C2326.38 797.247 2273.5 802.026 2237.94 772.36 2202.38 742.695 2197.6 689.819 2227.27 654.26 2230.5 650.39 2234.07 646.819 2237.94 643.591L2240.05 641.819C2191.07 664.173 2159.63 713.053 2159.61 766.896L2159.61 921.75 2434.9 921.75Z" stroke="#FFFFFF" stroke-width="8.12485"/><path d="M2435.37 523.625C2435.37 518.679 2435.88 513.747 2436.87 508.903L2253.56 662.278C2228.38 683.374 2225.08 720.885 2246.17 746.063 2267.27 771.241 2304.78 774.549 2329.96 753.454 2332.63 751.212 2335.1 748.739 2337.35 746.063L2471.03 586.301C2448.95 573.128 2435.42 549.332 2435.37 523.625ZM2312.87 709.736C2306.53 716.083 2296.24 716.085 2289.89 709.74 2283.55 703.395 2283.54 693.106 2289.89 686.759 2296.23 680.411 2306.52 680.41 2312.87 686.755 2312.87 686.756 2312.87 686.758 2312.87 686.759 2319.22 693.104 2319.22 703.391 2312.87 709.736Z" stroke="#FFFFFF" stroke-width="8.12485"/><path d="M2435.37 954.25 2159.12 954.25C2141.18 954.25 2126.62 968.801 2126.62 986.75L2126.62 1019.25 2467.87 1019.25 2467.87 986.75C2467.87 968.801 2453.32 954.25 2435.37 954.25Z" stroke="#FFFFFF" stroke-width="8.12485"/><path d="M2508.5 474.875C2481.58 474.875 2459.75 496.701 2459.75 523.625 2459.75 550.549 2481.58 572.375 2508.5 572.375 2535.42 572.375 2557.25 550.549 2557.25 523.625 2557.25 496.701 2535.42 474.875 2508.5 474.875ZM2508.5 535.812C2501.77 535.812 2496.31 530.356 2496.31 523.625 2496.31 516.894 2501.77 511.438 2508.5 511.438 2515.23 511.438 2520.69 516.894 2520.69 523.625 2520.69 530.356 2515.23 535.812 2508.5 535.812Z" stroke="#FFFFFF" stroke-width="8.12485"/></g></g></g><rect x="880.5" y="1126.5" width="861" height="335" stroke="#000000" stroke-width="20.625" stroke-miterlimit="8" fill="#FFFFFF"/><path d="M808.753 1189.31 736.997 1189.31 676.064 1037.2" stroke="#000000" stroke-width="20.625" stroke-miterlimit="8" fill="none" fill-rule="evenodd"/><text font-family="CMU Serif,CMU Serif_MSFontService,sans-serif" font-weight="500" font-size="83" transform="matrix(1 0 0 1 943.487 1265)">User <tspan font-size="83" x="190.781" y="0">defined</tspan><tspan font-size="83" x="477.24" y="0">flexible </tspan><tspan font-family="Lucida Console,Lucida Console_MSFontService,sans-serif" font-weight="400" font-stretch="semi-condensed" font-size="83" x="92.8124" y="106">scrapefun</tspan><tspan font-family="Lucida Console,Lucida Console_MSFontService,sans-serif" font-weight="400" font-stretch="semi-condensed" font-size="83" x="541.406" y="106">()</tspan></text><rect x="2476.5" y="1126.5" width="622" height="335" stroke="#000000" stroke-width="20.625" stroke-miterlimit="8" fill="#FFFFFF"/><path d="M2424.67 1189.31 2372.83 1189.31 2319.66 1064.76" stroke="#000000" stroke-width="20.625" stroke-miterlimit="8" fill="none" fill-rule="evenodd"/><text font-family="CMU Serif,CMU Serif_MSFontService,sans-serif" font-weight="500" font-size="83" transform="matrix(1 0 0 1 2648.46 1265)">Parallel <tspan font-size="83" x="-12.8792" y="101">Workers</tspan></text><path d="M3054.81 609.428 3056.78 642.638 3049.27 642.818 3056.83 674.112 3049.01 674.951 3053.62 723.46 3028.96 676.087 3038.23 675.642 3023.18 645.655 3034.51 644.103 3018.55 612.567Z" stroke="#000000" stroke-width="4.58333" stroke-miterlimit="8" fill-rule="evenodd"/><rect x="0" y="0" width="498" height="309" stroke="#000000" stroke-width="20.625" stroke-miterlimit="8" fill="#FFFFFF" transform="matrix(-1 0 0 1 2872.5 102.5)"/><path d="M-41.4983 57.9377-83.0016 57.9377-154.943 386.399" stroke="#000000" stroke-width="20.625" stroke-miterlimit="8" fill="none" fill-rule="evenodd" transform="matrix(-1 0 0 1 2872.5 102.5)"/><text font-family="CMU Serif,CMU Serif_MSFontService,sans-serif" font-weight="500" font-size="83" transform="matrix(1 0 0 1 2526.18 228)">Error <tspan font-size="83" x="-67.0313" y="101">Handling</tspan></text><path d="M3578.5 628.333C3578.5 553.867 3735.42 493.5 3929 493.5 4122.58 493.5 4279.5 553.867 4279.5 628.333L4279.5 1167.67C4279.5 1242.13 4122.58 1302.5 3929 1302.5 3735.42 1302.5 3578.5 1242.13 3578.5 1167.67Z" fill="#FFFFFF" fill-rule="evenodd"/><path d="M4279.5 628.333C4279.5 702.8 4122.58 763.167 3929 763.167 3735.42 763.167 3578.5 702.8 3578.5 628.333" stroke="#000000" stroke-width="20.625" stroke-miterlimit="8" fill="none" fill-rule="evenodd"/><path d="M3578.5 628.333C3578.5 553.867 3735.42 493.5 3929 493.5 4122.58 493.5 4279.5 553.867 4279.5 628.333L4279.5 1167.67C4279.5 1242.13 4122.58 1302.5 3929 1302.5 3735.42 1302.5 3578.5 1242.13 3578.5 1167.67Z" stroke="#000000" stroke-width="20.625" stroke-miterlimit="8" fill="none" fill-rule="evenodd"/><text font-family="CMU Serif,CMU Serif_MSFontService,sans-serif" font-weight="500" font-size="83" transform="matrix(1 0 0 1 3739.17 987)">Tidy<tspan font-size="83" x="199.375" y="0">Data</tspan></text><rect x="0" y="0" width="759" height="309" stroke="#000000" stroke-width="20.625" stroke-miterlimit="8" fill="#FFFFFF" transform="matrix(-1 0 0 1 1941.5 102.5)"/><path d="M-63.2475 57.9378-126.502 57.9378-139.831 370.312" stroke="#000000" stroke-width="20.625" stroke-miterlimit="8" fill="none" fill-rule="evenodd" transform="matrix(-1 0 0 1 1941.5 102.5)"/><text font-family="Lucida Console,Lucida Console_MSFontService,sans-serif" font-weight="400" font-stretch="semi-condensed" font-size="83" transform="matrix(1 0 0 1 1262.24 235)">purrr<tspan font-size="83" x="249.219" y="0">::</tspan>map<tspan font-size="83" x="498.438" y="0">() </tspan><tspan font-family="CMU Serif,CMU Serif_MSFontService,sans-serif" font-weight="500" font-stretch="normal" font-size="83" x="-24.0625" y="94">oriented</tspan><tspan font-family="CMU Serif,CMU Serif_MSFontService,sans-serif" font-weight="500" font-stretch="normal" font-size="83" x="296.771" y="94">workflow</tspan></text><g clip-path="url(#clip25)"><g clip-path="url(#clip26)"><g clip-path="url(#clip27)"><path d="M140.161 260.995 93.8867 214.76 140.161 168.526 151.588 179.953 116.821 214.76 151.588 249.568 140.161 260.995Z" transform="matrix(1 0 0 1 3284 1621)"/><path d="M248.838 260.995 237.411 249.568 272.178 214.76 237.411 179.953 248.838 168.526 295.113 214.76 248.838 260.995Z" transform="matrix(1 0 0 1 3284 1621)"/><path d="M143.606 208.844 244.867 208.844 244.867 225.053 143.606 225.053Z" transform="matrix(0.382845 -0.923813 0.923813 0.382845 3203.44 1934.35)"/><path d="M32.4166 68.8854 32.4166 320.114 356.583 320.114 356.583 68.8854ZM312.01 93.1979C316.486 93.1979 320.114 96.8261 320.114 101.302 320.114 105.778 316.486 109.406 312.01 109.406 307.534 109.406 303.906 105.778 303.906 101.302 303.906 96.8261 307.534 93.1979 312.01 93.1979ZM283.646 93.1979C288.122 93.1979 291.75 96.8261 291.75 101.302 291.75 105.778 288.122 109.406 283.646 109.406 279.17 109.406 275.542 105.778 275.542 101.302 275.542 96.8261 279.17 93.1979 283.646 93.1979ZM255.281 93.1979C259.757 93.1979 263.385 96.8261 263.385 101.302 263.385 105.778 259.757 109.406 255.281 109.406 250.805 109.406 247.177 105.778 247.177 101.302 247.177 96.8261 250.805 93.1979 255.281 93.1979ZM332.271 295.802 56.7291 295.802 56.7291 133.719 332.271 133.719Z" transform="matrix(1 0 0 1 3284 1621)"/></g></g></g><g clip-path="url(#clip28)"><g clip-path="url(#clip29)"><g clip-path="url(#clip30)"><path d="M298.663 175.253 356.583 162.249 353.029 146.446 295.397 159.381 201.214 67.8805 201.214 36.8739 185.006 36.8739 185.006 68.1033 77.7027 156.41 33.1906 146.438 29.6369 162.241 74.1531 172.242 115.379 295.397 86.3823 340.01 99.9729 348.844 128.897 304.332 239.19 276.425 286.251 348.844 299.854 340.01 252.445 267.101ZM237.12 243.494 206.251 195.999 267.98 182.141ZM267.032 165.73 201.214 180.52 201.214 101.784ZM185.006 99.588 185.006 180.52 107.761 163.177ZM101.857 178.462 179.965 195.999 132.296 269.342ZM148.403 274.326 193.11 205.518 225.19 254.876Z" transform="matrix(1 0 0 1 2177 1621)"/></g></g></g><g clip-path="url(#clip31)"><g clip-path="url(#clip32)"><g clip-path="url(#clip33)"><path d="M217.192 215.976C230.969 226.917 243.936 245.962 253.661 267.438L135.34 267.438C145.47 245.962 158.031 226.512 171.808 215.976 178.292 210.708 182.344 203.009 182.344 194.5 182.344 185.991 178.292 178.292 171.808 173.024 144.254 151.548 120.347 96.4396 116.295 56.7292L273.111 56.7292C268.653 96.4396 245.151 151.548 217.597 173.024 210.708 178.292 206.656 185.991 206.656 194.5 206.656 203.009 210.708 210.708 217.192 215.976ZM297.018 56.7292 307.958 56.7292 307.958 32.4167 81.0417 32.4167 81.0417 56.7292 91.5771 56.7292C96.0344 101.707 121.968 167.351 159.652 194.5 121.968 221.649 95.6292 287.293 91.5771 332.271L81.0417 332.271 81.0417 356.583 307.958 356.583 307.958 332.271 297.018 332.271C292.966 287.293 266.627 221.649 228.943 194.5 266.627 167.351 292.966 101.707 297.018 56.7292Z" transform="matrix(1 0 0 1.00257 2174 2061)"/></g></g></g><g clip-path="url(#clip34)"><g clip-path="url(#clip35)"><g clip-path="url(#clip36)"><path d="M224.891 141.823 160.057 141.823 160.057 239.073 109.406 239.073 192.474 336.323 275.542 239.073 224.891 239.073Z" transform="matrix(1.00257 0 0 1 1134 1621)"/><path d="M326.598 153.574C323.356 133.719 312.415 115.89 296.207 104.138 279.594 92.3874 258.523 87.9302 238.262 91.9822 218.407 61.5916 181.533 46.5989 146.28 55.1083 111.837 64.0229 85.9041 92.7927 80.6364 128.046 57.9448 128.856 36.4687 139.797 22.6917 158.031 6.48333 180.723 3.64687 210.303 14.9927 235.831 26.7437 260.954 51.0562 277.568 78.6104 279.188L108.191 279.188 97.2499 265.817 87.1197 254.065 79.826 254.065C61.5916 252.85 45.3833 241.909 37.2791 225.296 29.5802 208.277 31.6062 188.827 42.5469 173.429 53.4875 158.436 71.7218 151.143 90.3614 153.979L104.544 156.41 104.544 140.607C104.544 111.837 123.994 86.7145 151.953 79.826 179.912 72.9375 208.682 86.7145 221.649 112.243L226.511 121.968 236.642 118.321C252.039 113.053 268.653 115.484 282.025 124.804 294.992 134.529 302.69 149.522 303.096 165.73L303.096 178.292 319.709 178.292C340.375 179.102 356.583 196.121 356.178 216.381 356.178 237.047 339.564 253.66 319.304 254.065L298.233 254.065 287.698 265.817 276.352 279.594 319.304 279.594C352.126 278.783 378.87 252.85 380.896 220.028 382.922 187.206 359.014 158.436 326.598 153.574Z" transform="matrix(1.00257 0 0 1 1134 1621)"/></g></g></g><g clip-path="url(#clip37)"><g clip-path="url(#clip38)"><g clip-path="url(#clip39)"><path d="M1450.47 2360.71 1434.22 2279.46C1432.62 2271.44 1426.38 2265.17 1418.37 2263.53L1418.37 2181.06 1424.35 2183.54C1432.68 2186.87 1442.14 2182.81 1445.47 2174.48 1448.74 2166.29 1444.89 2156.98 1436.78 2153.51L1233.65 2069.38C1225.36 2065.94 1215.86 2069.88 1212.42 2078.18 1208.99 2086.47 1212.93 2095.97 1221.22 2099.41L1286.54 2126.46 1221.22 2153.5C1212.89 2156.83 1208.83 2166.29 1212.17 2174.62 1215.5 2182.95 1224.95 2187.01 1233.29 2183.68 1233.41 2183.63 1233.53 2183.58 1233.65 2183.52L1239.62 2181.06 1239.62 2263.53C1231.62 2265.17 1225.38 2271.45 1223.78 2279.46L1207.53 2360.71C1205.7 2369.85 1210.33 2379.06 1218.75 2383.05L1268.59 2406.66 1268.94 2398.02C1269.37 2386.84 1272.92 2376 1279.21 2366.74L1250.48 2353.13 1263.59 2287.42C1265.11 2279.78 1262.11 2271.95 1255.88 2267.27L1255.88 2174.32 1320.87 2147.4 1320.87 2247.42C1297.43 2250.41 1284.99 2266.83 1284.99 2295.29 1284.99 2326.89 1304.99 2352.5 1329 2352.5 1353.01 2352.5 1373.01 2326.89 1373.01 2295.29 1373.01 2266.83 1360.57 2250.41 1337.12 2247.42L1337.12 2147.4 1402.12 2174.32 1402.12 2267.27C1395.89 2271.95 1392.89 2279.78 1394.41 2287.42L1407.54 2353.12 1378.81 2366.72C1385.09 2375.98 1388.65 2386.82 1389.08 2398L1389.43 2406.64 1439.26 2383.03C1447.67 2379.04 1452.29 2369.84 1450.47 2360.71Z"/><path d="M1352.12 2358.47C1337.82 2366.76 1320.18 2366.76 1305.88 2358.47 1291.18 2366.56 1281.78 2381.74 1281.1 2398.5L1279.35 2441.87 1378.65 2441.87 1376.9 2398.5C1376.22 2381.74 1366.82 2366.56 1352.12 2358.47Z"/><path d="M1436.78 2099.41C1445.14 2096.14 1449.26 2086.71 1445.99 2078.35 1442.72 2069.99 1433.29 2065.87 1424.93 2069.14 1424.74 2069.22 1424.54 2069.3 1424.35 2069.38L1344.92 2102.25 1387.39 2119.84Z"/></g></g></g><g clip-path="url(#clip40)"><g clip-path="url(#clip41)"><g clip-path="url(#clip42)"><path d="M320.925 239.883C320.925 206.656 294.992 179.912 262.17 178.292L262.17 153.979 67.6698 153.979 67.6698 340.375C67.6698 349.289 74.9635 356.583 83.8781 356.583L245.961 356.583C254.876 356.583 262.17 349.289 262.17 340.375L262.17 301.88C294.992 300.259 320.925 273.11 320.925 239.883ZM262.575 277.568 262.575 202.604C282.025 204.225 297.018 220.433 297.018 239.883 297.018 259.333 281.62 275.947 262.575 277.568Z" transform="matrix(1 0 0 1.00257 3280 1999)"/><path d="M157.626 74.9635C160.057 77.3948 161.273 80.2312 161.273 83.4729 161.273 86.7145 160.057 89.9562 157.626 91.9822 154.384 95.2239 154.384 100.086 157.626 103.328 159.247 104.949 161.273 105.759 163.299 105.759 165.325 105.759 167.351 104.949 168.972 103.328 174.239 98.0604 177.481 90.7666 177.481 83.0677 177.481 75.3687 174.645 68.4802 168.972 63.2125 168.972 63.2125 168.972 63.2125 168.972 63.2125 164.109 58.35 164.109 50.651 168.972 46.1937 172.213 42.9521 172.213 38.0896 168.972 34.8479 165.73 31.6062 160.868 31.6062 157.626 34.8479 146.28 45.7885 146.28 64.0229 157.626 74.9635 157.626 74.9635 157.626 74.9635 157.626 74.9635Z" transform="matrix(1 0 0 1.00257 3280 1999)"/><path d="M201.794 98.4656C206.656 103.328 206.656 111.027 201.794 115.484 198.552 118.726 198.552 123.588 201.794 126.83 203.414 128.451 205.441 129.261 207.467 129.261 209.493 129.261 211.519 128.451 213.139 126.83 224.08 115.89 224.08 97.6552 213.139 86.7145 213.139 86.7145 213.139 86.7145 213.139 86.7145 210.708 84.2833 209.493 81.4468 209.493 78.2052 209.493 74.9635 210.708 71.7218 213.139 69.6958 216.381 66.4541 216.381 61.5916 213.139 58.35 209.898 55.1083 205.035 55.1083 201.794 58.35 196.526 63.6177 193.284 70.9114 193.284 78.6104 193.689 86.3093 196.526 93.1979 201.794 98.4656 201.794 98.4656 201.794 98.4656 201.794 98.4656Z" transform="matrix(1 0 0 1.00257 3280 1999)"/><path d="M117.105 98.4656C119.536 100.897 120.752 103.733 120.752 106.975 120.752 110.217 119.536 113.458 117.105 115.484 113.863 118.726 113.863 123.588 117.105 126.83 118.726 128.451 120.752 129.261 122.778 129.261 124.804 129.261 126.83 128.451 128.451 126.83 133.719 121.562 136.96 114.269 136.96 106.57 136.96 98.8708 134.124 91.9822 128.451 86.3093L128.451 86.3093C123.588 81.4468 123.588 73.7479 128.451 69.2906 131.693 66.0489 131.693 61.1864 128.451 57.9448 125.209 54.7031 120.347 54.7031 117.105 57.9448 105.759 69.6958 105.759 87.525 117.105 98.4656 117.105 98.4656 117.105 98.4656 117.105 98.4656Z" transform="matrix(1 0 0 1.00257 3280 1999)"/></g></g></g><text font-family="CMU Serif,CMU Serif_MSFontService,sans-serif" font-weight="500" font-size="83" transform="matrix(1 0 0 1 1557.07 1738)">Download <tspan font-size="83" x="0" y="99">webpage</tspan><tspan font-size="83" x="0" y="198">content</tspan><tspan font-size="83" x="-0.866455" y="464">Control remote </tspan><tspan font-size="83" x="-0.866455" y="563">browser</tspan><tspan font-size="83" x="1042.2" y="99">Proxy Rotation</tspan><tspan font-size="83" x="1042.2" y="539">Time </tspan><tspan font-size="83" x="1257.62" y="539">Requests</tspan><tspan font-size="83" x="2152.19" y="44">Extract </tspan><tspan font-size="83" x="2454.12" y="44">hmtl</tspan><tspan font-size="83" x="2152.19" y="143">elements</tspan><tspan font-size="83" x="2149.36" y="434">Execute </tspan><tspan font-size="83" x="2149.36" y="533">Javascript</tspan></text><g clip-path="url(#clip43)"><g clip-path="url(#clip44)"><g clip-path="url(#clip45)"><path d="M323.197 2224.65 326.119 2215.98 319.519 2209.38 310.856 2212.31C308.604 2211.04 306.202 2210.06 303.706 2209.38L299.65 2201.31 290.438 2201.31 286.347 2209.42C283.842 2210.1 281.429 2211.08 279.163 2212.34L270.5 2209.42 263.9 2216.02 266.65 2224.68C265.331 2226.92 264.314 2229.32 263.625 2231.83L255.513 2235.89 255.513 2244.96 263.625 2249.05C264.294 2251.55 265.275 2253.95 266.547 2256.2L263.625 2264.87 270.5 2271.47 279.163 2268.51C281.413 2269.79 283.815 2270.78 286.313 2271.47L290.369 2279.54 299.581 2279.54 303.672 2271.6C306.126 2270.94 308.492 2269.98 310.719 2268.75L319.347 2271.71 325.947 2265.07 323.025 2256.44C324.338 2254.18 325.388 2251.77 326.153 2249.26L334.231 2245.2 334.231 2235.89 326.119 2231.8C325.463 2229.3 324.48 2226.89 323.197 2224.65ZM295.009 2254.31C287.416 2254.31 281.259 2248.16 281.259 2240.56 281.259 2232.97 287.416 2226.81 295.009 2226.81 302.557 2226.92 308.649 2233.01 308.759 2240.56 308.759 2248.16 302.603 2254.31 295.009 2254.31Z"/><path d="M324.538 2347.09 265.378 2347.09C259.901 2347.41 255.723 2352.11 256.045 2357.59 256.341 2362.62 260.352 2366.63 265.378 2366.93L324.538 2366.93C330.014 2366.6 334.193 2361.9 333.871 2356.42 333.574 2351.4 329.564 2347.39 324.538 2347.09Z"/><path d="M294.975 2400.51C306.199 2400.49 315.53 2391.86 316.425 2380.68L273.491 2380.68C274.403 2391.87 283.745 2400.49 294.975 2400.51Z"/><path d="M380.809 2242.87 380.809 2239.91C379.934 2192.99 341.8 2155.33 294.872 2155.04L294.872 2155.04C247.944 2155.33 209.81 2192.99 208.934 2239.91L208.934 2242.87C209.249 2253.04 211.271 2263.09 214.916 2272.6 218.395 2281.57 223.447 2289.85 229.834 2297.04 237.706 2305.6 246.3 2322.27 249.944 2329.7 251.058 2331.94 253.352 2333.35 255.856 2333.34L333.888 2333.34C336.392 2333.35 338.686 2331.94 339.8 2329.7 343.444 2322.27 352.038 2305.63 359.909 2297.04 366.297 2289.85 371.349 2281.57 374.828 2272.6 378.473 2263.09 380.495 2253.04 380.809 2242.87ZM361.009 2242.56C360.765 2250.46 359.221 2258.26 356.438 2265.66 353.827 2272.32 350.057 2278.46 345.3 2283.81 337.67 2292.89 331.128 2302.83 325.809 2313.44L263.934 2313.44C258.676 2302.81 252.193 2292.83 244.616 2283.7 239.859 2278.36 236.088 2272.21 233.478 2265.55 230.637 2258.17 229.034 2250.36 228.734 2242.45L228.734 2239.98C229.35 2203.88 258.67 2174.88 294.769 2174.67L294.769 2174.67C330.867 2174.88 360.188 2203.88 360.803 2239.98Z"/><path d="M295.628 2141.56C299.425 2141.56 302.503 2138.48 302.503 2134.69L302.503 2110.62C302.503 2106.83 299.425 2103.75 295.628 2103.75 291.831 2103.75 288.753 2106.83 288.753 2110.62L288.753 2134.69C288.753 2138.48 291.831 2141.56 295.628 2141.56Z"/><path d="M214.056 2171.78C216.738 2174.44 221.068 2174.44 223.75 2171.78 226.415 2169.1 226.415 2164.77 223.75 2162.08L206.734 2145C203.916 2142.46 199.569 2142.68 197.024 2145.5 194.655 2148.12 194.662 2152.11 197.041 2154.73Z"/><path d="M372.456 2175.11C374.288 2175.11 376.046 2174.38 377.338 2173.08L394.319 2155.9C396.534 2152.81 395.829 2148.52 392.745 2146.3 390.312 2144.55 387.027 2144.58 384.625 2146.38L367.438 2163.56C364.772 2166.24 364.772 2170.57 367.438 2173.26 368.791 2174.53 370.601 2175.2 372.456 2175.11Z"/><path d="M188.859 2232.66 164.797 2232.66C161 2232.66 157.922 2235.73 157.922 2239.53 157.922 2243.33 161 2246.41 164.797 2246.41L188.859 2246.41C192.656 2246.41 195.734 2243.33 195.734 2239.53 195.734 2235.73 192.656 2232.66 188.859 2232.66Z"/><path d="M214.056 2307.04 197.041 2324.23C194.157 2326.7 193.821 2331.04 196.291 2333.93 198.76 2336.81 203.101 2337.14 205.984 2334.68 206.254 2334.44 206.504 2334.19 206.734 2333.93L223.75 2316.74C226.22 2313.85 225.884 2309.51 223 2307.04 220.426 2304.84 216.63 2304.84 214.056 2307.04Z"/><path d="M377.338 2305.74C374.793 2302.92 370.446 2302.7 367.627 2305.24 364.809 2307.79 364.588 2312.13 367.132 2314.95 367.283 2315.12 367.443 2315.28 367.609 2315.43L384.797 2332.62C387.227 2335.54 391.562 2335.93 394.48 2333.5 397.397 2331.07 397.792 2326.74 395.362 2323.82 395.032 2323.42 394.659 2323.07 394.25 2322.75Z"/><path d="M425.188 2232.42 401.125 2232.42C397.328 2232.42 394.25 2235.49 394.25 2239.29 394.25 2243.09 397.328 2246.17 401.125 2246.17L425.188 2246.17C428.985 2246.17 432.063 2243.09 432.063 2239.29 432.063 2235.49 428.985 2232.42 425.188 2232.42Z"/></g></g></g><text font-family="CMU Serif,CMU Serif_MSFontService,sans-serif" font-weight="500" font-size="83" transform="matrix(1 0 0 1 506.851 2227)">Useful<tspan font-size="83" x="252.656" y="0">Helpers </tspan><tspan font-size="83" x="0" y="99">and Tutorials</tspan></text></g></svg>