<svg width="680" height="138" xmlns="http://www.w3.org/2000/svg" xmlns:xlink="http://www.w3.org/1999/xlink" overflow="hidden"><defs><clipPath id="clip0"><rect x="0" y="230" width="680" height="138"/></clipPath><clipPath id="clip1"><rect x="506" y="236" width="62" height="61"/></clipPath><clipPath id="clip2"><rect x="506" y="236" width="62" height="61"/></clipPath><clipPath id="clip3"><rect x="506" y="236" width="62" height="61"/></clipPath><clipPath id="clip4"><rect x="335" y="236" width="62" height="61"/></clipPath><clipPath id="clip5"><rect x="335" y="236" width="62" height="61"/></clipPath><clipPath id="clip6"><rect x="335" y="236" width="62" height="61"/></clipPath><clipPath id="clip7"><rect x="335" y="304" width="61" height="61"/></clipPath><clipPath id="clip8"><rect x="335" y="304" width="61" height="61"/></clipPath><clipPath id="clip9"><rect x="335" y="304" width="61" height="61"/></clipPath><clipPath id="clip10"><rect x="174" y="236" width="62" height="61"/></clipPath><clipPath id="clip11"><rect x="174" y="236" width="62" height="61"/></clipPath><clipPath id="clip12"><rect x="174" y="236" width="62" height="61"/></clipPath><clipPath id="clip13"><rect x="174" y="304" width="62" height="61"/></clipPath><clipPath id="clip14"><rect x="174" y="304" width="62" height="61"/></clipPath><clipPath id="clip15"><rect x="174" y="304" width="62" height="61"/></clipPath><clipPath id="clip16"><rect x="506" y="294" width="61" height="62"/></clipPath><clipPath id="clip17"><rect x="506" y="294" width="61" height="62"/></clipPath><clipPath id="clip18"><rect x="506" y="294" width="61" height="62"/></clipPath><clipPath id="clip19"><rect x="20" y="308" width="52" height="52"/></clipPath><clipPath id="clip20"><rect x="20" y="308" width="52" height="52"/></clipPath><clipPath id="clip21"><rect x="20" y="308" width="52" height="52"/></clipPath></defs><g clip-path="url(#clip0)" transform="matrix(1 0 0 1 0 -230)"><path d="M0.463652 244.336 680.464 244.336 680.464 382.191 0.463636 382.191Z" fill="#F2F2F2" transform="matrix(1 0 0 1.00106 -0.463636 -14.5942)"/><text font-family="CMU Serif,CMU Serif_MSFontService,sans-serif" font-weight="500" font-size="110" transform="matrix(0.154545 0 0 0.154709 28.084 259)">Writing <tspan font-size="110" x="410.781" y="0">a flexible</tspan><tspan font-family="Lucida Console,Lucida Console_MSFontService,sans-serif" font-weight="400" font-stretch="semi-condensed" font-size="110" x="0" y="135.739">scrapefun</tspan><tspan font-family="Lucida Console,Lucida Console_MSFontService,sans-serif" font-weight="400" font-stretch="semi-condensed" font-size="110" x="598.125" y="135.739">()</tspan></text><g clip-path="url(#clip1)"><g clip-path="url(#clip2)"><g clip-path="url(#clip3)"><path d="M21.6612 40.3356 14.5098 33.1902 21.6612 26.0449 23.4272 27.8109 18.0542 33.1902 23.4272 38.5696 21.6612 40.3356Z" transform="matrix(1 0 0 1.00106 507.064 236.188)"/><path d="M38.4568 40.3356 36.6908 38.5696 42.0639 33.1902 36.6908 27.8109 38.4568 26.0449 45.6084 33.1902 38.4568 40.3356Z" transform="matrix(1 0 0 1.00106 507.064 236.188)"/><path d="M22.1971 32.2809 37.8489 32.2809 37.8489 34.7863 22.1971 34.7863Z" transform="matrix(0.382786 -0.924645 0.92367 0.38319 494.613 284.666)"/><path d="M5.00984 10.6459 5.00984 49.4722 55.1083 49.4722 55.1083 10.6459ZM48.2197 14.4033C48.9115 14.4033 49.4722 14.964 49.4722 15.6558 49.4722 16.3475 48.9115 16.9082 48.2197 16.9082 47.528 16.9082 46.9673 16.3475 46.9673 15.6558 46.9673 14.964 47.528 14.4033 48.2197 14.4033ZM43.8362 14.4033C44.5279 14.4033 45.0886 14.964 45.0886 15.6558 45.0886 16.3475 44.5279 16.9082 43.8362 16.9082 43.1445 16.9082 42.5838 16.3475 42.5838 15.6558 42.5838 14.964 43.1445 14.4033 43.8362 14.4033ZM39.4525 14.4033C40.1443 14.4033 40.705 14.964 40.705 15.6558 40.705 16.3475 40.1443 16.9082 39.4525 16.9082 38.7608 16.9082 38.2001 16.3475 38.2001 15.6558 38.2001 14.964 38.7608 14.4033 39.4525 14.4033ZM51.351 45.7149 8.76722 45.7149 8.76722 20.6657 51.351 20.6657Z" transform="matrix(1 0 0 1.00106 507.064 236.188)"/></g></g></g><g clip-path="url(#clip4)"><g clip-path="url(#clip5)"><g clip-path="url(#clip6)"><path d="M46.157 27.0846 55.1083 25.0748 54.559 22.6326 45.6523 24.6316 31.0967 10.4906 31.0967 5.69869 28.5918 5.69869 28.5918 10.5251 12.0086 24.1725 5.12946 22.6313 4.58025 25.0736 11.46 26.6192 17.8313 45.6523 13.35 52.547 15.4504 53.9123 19.9204 47.0331 36.9657 42.7202 44.2388 53.9123 46.3411 52.547 39.0142 41.2792ZM36.6458 37.6309 31.8752 30.2908 41.4151 28.1491ZM41.2686 25.6128 31.0967 27.8985 31.0967 15.7303ZM28.5918 15.3909 28.5918 27.8985 16.654 25.2183ZM15.7415 27.5805 27.8128 30.2908 20.4457 41.6256ZM22.935 42.3958 29.8443 31.7619 34.8021 39.3899Z" transform="matrix(1 0 0 1.00106 335.982 236.188)"/></g></g></g><g clip-path="url(#clip7)"><g clip-path="url(#clip8)"><g clip-path="url(#clip9)"><path d="M33.566 33.3781C35.6952 35.069 37.6992 38.0123 39.2022 41.3313L20.9162 41.3313C22.4817 38.0123 24.423 35.0064 26.5521 33.3781 27.5542 32.564 28.1804 31.3741 28.1804 30.0591 28.1804 28.7441 27.5542 27.5542 26.5521 26.7401 22.2938 23.4211 18.5991 14.9043 17.9729 8.76724L42.2081 8.76724C41.5191 14.9043 37.887 23.4211 33.6286 26.7401 32.564 27.5542 31.9377 28.7441 31.9377 30.0591 31.9377 31.3741 32.564 32.564 33.566 33.3781ZM45.9028 8.76724 47.5935 8.76724 47.5935 5.00985 12.5246 5.00985 12.5246 8.76724 14.1528 8.76724C14.8417 15.7184 18.8496 25.8633 24.6735 30.0591 18.8496 34.2548 14.7791 44.3998 14.1528 51.351L12.5246 51.351 12.5246 55.1083 47.5935 55.1083 47.5935 51.351 45.9028 51.351C45.2766 44.3998 41.206 34.2548 35.3821 30.0591 41.206 25.8633 45.2766 15.7184 45.9028 8.76724Z" transform="matrix(1 0 0 1.00363 335.518 304.26)"/></g></g></g><g clip-path="url(#clip10)"><g clip-path="url(#clip11)"><g clip-path="url(#clip12)"><path d="M34.7926 21.9412 24.7622 21.9412 24.7622 36.9866 16.926 36.9866 29.7774 52.032 42.6287 36.9866 34.7926 36.9866Z" transform="matrix(1.00151 0 0 1 174.791 236.188)"/><path d="M50.5275 23.7592C50.0259 20.6875 48.3333 17.9292 45.8257 16.111 43.2556 14.2931 39.9957 13.6036 36.8612 14.2304 33.7894 9.52874 28.0847 7.20925 22.6308 8.52572 17.3021 9.90489 13.2901 14.3558 12.4751 19.8098 8.96455 19.9351 5.64202 21.6278 3.5106 24.4487 1.00303 27.9594 0.564202 32.5357 2.3195 36.4851 4.13748 40.3718 7.89883 42.9421 12.1617 43.1928L16.7381 43.1928 15.0454 41.1242 13.4782 39.306 12.3498 39.306C9.52874 39.118 7.02118 37.4254 5.76739 34.8552 4.57631 32.2222 4.88975 29.2131 6.58237 26.8309 8.27497 24.5114 11.096 23.3831 13.9797 23.8219L16.1738 24.198 16.1738 21.7531C16.1738 17.3021 19.1829 13.4155 23.5084 12.3498 27.8339 11.2841 32.2849 13.4155 34.291 17.3649L35.0432 18.8695 36.6105 18.3053C38.9926 17.4903 41.5629 17.8664 43.6317 19.3082 45.6378 20.8128 46.8287 23.1323 46.8915 25.6398L46.8915 27.5833 49.4617 27.5833C52.6589 27.7086 55.1664 30.3416 55.1038 33.476 55.1038 36.6732 52.5334 39.2434 49.399 39.306L46.1392 39.306 44.5093 41.1242 42.754 43.2556 49.399 43.2556C54.4769 43.1301 58.6144 39.118 58.9279 34.0402 59.2413 28.9624 55.5425 24.5114 50.5275 23.7592Z" transform="matrix(1.00151 0 0 1 174.791 236.188)"/></g></g></g><g clip-path="url(#clip13)"><g clip-path="url(#clip14)"><g clip-path="url(#clip15)"><path d="M224.164 364.837 221.652 352.28C221.405 351.041 220.441 350.072 219.203 349.818L219.203 337.073 220.127 337.456C221.414 337.971 222.876 337.343 223.391 336.056 223.896 334.79 223.301 333.351 222.048 332.815L190.655 319.813C189.374 319.282 187.906 319.891 187.374 321.173 186.844 322.454 187.453 323.923 188.734 324.454L198.829 328.635 188.734 332.814C187.447 333.328 186.819 334.79 187.335 336.078 187.85 337.365 189.31 337.992 190.599 337.478 190.618 337.47 190.636 337.462 190.655 337.453L191.578 337.073 191.578 349.818C190.341 350.072 189.377 351.042 189.13 352.28L186.618 364.837C186.335 366.25 187.051 367.673 188.352 368.29L196.055 371.938 196.109 370.603C196.175 368.875 196.724 367.2 197.696 365.769L193.256 363.666 195.282 353.51C195.517 352.33 195.053 351.12 194.091 350.396L194.091 336.031 204.134 331.871 204.134 347.329C200.512 347.791 198.589 350.328 198.589 354.727 198.589 359.61 201.68 363.568 205.391 363.568 209.102 363.568 212.192 359.61 212.192 354.727 212.192 350.328 210.27 347.791 206.646 347.329L206.646 331.871 216.691 336.031 216.691 350.396C215.728 351.12 215.265 352.33 215.5 353.51L217.529 363.664 213.089 365.766C214.059 367.197 214.61 368.872 214.676 370.6L214.73 371.935 222.431 368.286C223.731 367.67 224.445 366.248 224.164 364.837Z" transform="matrix(1 0 0 1.00106 -0.463636 -14.5942)"/><path d="M208.964 364.491C206.754 365.772 204.028 365.772 201.818 364.491 199.546 365.741 198.093 368.087 197.988 370.677L197.718 377.38 213.064 377.38 212.794 370.677C212.689 368.087 211.236 365.741 208.964 364.491Z" transform="matrix(1 0 0 1.00106 -0.463636 -14.5942)"/><path d="M222.048 324.454C223.34 323.949 223.977 322.492 223.471 321.2 222.966 319.908 221.508 319.271 220.216 319.776 220.187 319.789 220.156 319.801 220.127 319.813L207.851 324.893 214.415 327.612Z" transform="matrix(1 0 0 1.00106 -0.463636 -14.5942)"/></g></g></g><g clip-path="url(#clip16)"><g clip-path="url(#clip17)"><g clip-path="url(#clip18)"><path d="M49.5975 37.0728C49.5975 31.9377 45.5897 27.8046 40.5172 27.5542L40.5172 23.7968 10.4581 23.7968 10.4581 52.6034C10.4581 53.981 11.5853 55.1083 12.963 55.1083L38.0122 55.1083C39.3899 55.1083 40.5172 53.981 40.5172 52.6034L40.5172 46.6542C45.5897 46.4037 49.5975 42.2079 49.5975 37.0728ZM40.5798 42.8969 40.5798 31.3115C43.5857 31.562 45.9028 34.0669 45.9028 37.0728 45.9028 40.0787 43.5231 42.6464 40.5798 42.8969Z" transform="matrix(1 0 0 1.00363 506.445 294.668)"/><path d="M24.3604 11.5853C24.7361 11.961 24.924 12.3994 24.924 12.9004 24.924 13.4013 24.7361 13.9023 24.3604 14.2154 23.8593 14.7164 23.8593 15.4678 24.3604 15.9689 24.6109 16.2194 24.924 16.3446 25.2371 16.3446 25.5502 16.3446 25.8633 16.2194 26.1139 15.9689 26.9278 15.1548 27.4289 14.0276 27.4289 12.8377 27.4289 11.6479 26.9906 10.5833 26.1139 9.76921 26.1139 9.76921 26.1139 9.76921 26.1139 9.76921 25.3623 9.01773 25.3623 7.82788 26.1139 7.13903 26.6147 6.63805 26.6147 5.88657 26.1139 5.38558 25.6128 4.88459 24.8614 4.88459 24.3604 5.38558 22.6069 7.07641 22.6069 9.89445 24.3604 11.5853 24.3604 11.5853 24.3604 11.5853 24.3604 11.5853Z" transform="matrix(1 0 0 1.00363 506.445 294.668)"/><path d="M31.1863 15.2174C31.9377 15.9689 31.9377 17.1587 31.1863 17.8475 30.6853 18.3486 30.6853 19.1 31.1863 19.601 31.4367 19.8515 31.75 19.9767 32.0631 19.9767 32.3762 19.9767 32.6893 19.8515 32.9397 19.601 34.6305 17.9103 34.6305 15.0922 32.9397 13.4013 32.9397 13.4013 32.9397 13.4013 32.9397 13.4013 32.564 13.0256 32.3762 12.5872 32.3762 12.0863 32.3762 11.5853 32.564 11.0843 32.9397 10.7712 33.4407 10.2702 33.4407 9.5187 32.9397 9.01773 32.4388 8.51674 31.6872 8.51674 31.1863 9.01773 30.3722 9.83183 29.8712 10.959 29.8712 12.1489 29.9338 13.3387 30.3722 14.4033 31.1863 15.2174 31.1863 15.2174 31.1863 15.2174 31.1863 15.2174Z" transform="matrix(1 0 0 1.00363 506.445 294.668)"/><path d="M18.098 15.2174C18.4737 15.5932 18.6617 16.0315 18.6617 16.5325 18.6617 17.0335 18.4737 17.5344 18.098 17.8475 17.597 18.3486 17.597 19.1 18.098 19.601 18.3486 19.8515 18.6617 19.9767 18.9748 19.9767 19.2879 19.9767 19.601 19.8515 19.8515 19.601 20.6657 18.7869 21.1665 17.6598 21.1665 16.4699 21.1665 15.28 20.7283 14.2154 19.8515 13.3387L19.8515 13.3387C19.1 12.5872 19.1 11.3974 19.8515 10.7085 20.3526 10.2076 20.3526 9.45608 19.8515 8.95511 19.3505 8.45411 18.5991 8.45411 18.098 8.95511 16.3446 10.7712 16.3446 13.5266 18.098 15.2174 18.098 15.2174 18.098 15.2174 18.098 15.2174Z" transform="matrix(1 0 0 1.00363 506.445 294.668)"/></g></g></g><text font-family="CMU Serif,CMU Serif_MSFontService,sans-serif" font-weight="500" font-size="83" transform="matrix(0.154545 0 0 0.154709 240.174 254)">Download <tspan font-size="83" x="0" y="103.42">webpage</tspan><tspan font-size="83" x="0" y="200.377">content</tspan><tspan font-size="83" x="-0.866484" y="465.391">Control remote </tspan><tspan font-size="83" x="-0.866484" y="562.348">browser</tspan><tspan font-size="83" x="1042.2" y="103.42">Proxy Rotation</tspan><tspan font-size="83" x="1042.2" y="542.957">Time </tspan><tspan font-size="83" x="1257.62" y="542.957">Requests</tspan><tspan font-size="83" x="2152.19" y="45.2464">Extract </tspan><tspan font-size="83" x="2454.12" y="45.2464">hmtl</tspan><tspan font-size="83" x="2152.19" y="142.203">elements</tspan><tspan font-size="83" x="2149.36" y="433.072">Execute </tspan><tspan font-size="83" x="2149.36" y="536.493">Javascript</tspan></text><g clip-path="url(#clip19)"><g clip-path="url(#clip20)"><g clip-path="url(#clip21)"><path d="M49.9486 343.81 50.4002 342.47 49.3802 341.45 48.0414 341.902C47.6933 341.706 47.3221 341.555 46.9364 341.45L46.3095 340.202 44.8859 340.202 44.2536 341.456C43.8665 341.561 43.4936 341.712 43.1434 341.907L41.8045 341.456 40.7845 342.476 41.2095 343.814C41.0057 344.16 40.8485 344.531 40.742 344.919L39.4884 345.547 39.4884 346.948 40.742 347.58C40.8454 347.967 40.997 348.338 41.1936 348.685L40.742 350.025 41.8045 351.045 43.1434 350.588C43.4911 350.786 43.8623 350.939 44.2484 351.045L44.8752 352.293 46.2989 352.293 46.9311 351.065C47.3104 350.963 47.676 350.815 48.0202 350.625L49.3536 351.082 50.3736 350.056 49.922 348.723C50.125 348.373 50.2872 348.001 50.4055 347.613L51.6539 346.985 51.6539 345.547 50.4002 344.915C50.2988 344.528 50.1469 344.156 49.9486 343.81ZM45.5923 348.393C44.4188 348.393 43.4673 347.443 43.4673 346.268 43.4673 345.095 44.4188 344.143 45.5923 344.143 46.7588 344.16 47.7003 345.102 47.7173 346.268 47.7173 347.443 46.7659 348.393 45.5923 348.393Z" transform="matrix(1 0 0 1.00106 -0.463636 -14.5942)"/><path d="M50.1559 362.732 41.013 362.732C40.1665 362.782 39.5208 363.508 39.5706 364.355 39.6163 365.132 40.2362 365.752 41.013 365.798L50.1559 365.798C51.0022 365.747 51.648 365.021 51.5982 364.174 51.5523 363.398 50.9326 362.778 50.1559 362.732Z" transform="matrix(1 0 0 1.00106 -0.463636 -14.5942)"/><path d="M45.587 370.988C47.3217 370.985 48.7637 369.651 48.902 367.923L42.2668 367.923C42.4077 369.653 43.8515 370.985 45.587 370.988Z" transform="matrix(1 0 0 1.00106 -0.463636 -14.5942)"/><path d="M58.8523 346.625 58.8523 346.168C58.7171 338.917 52.8236 333.096 45.5711 333.052L45.5711 333.052C38.3186 333.096 32.4252 338.917 32.2898 346.168L32.2898 346.625C32.3385 348.197 32.651 349.75 33.2143 351.22 33.752 352.606 34.5327 353.886 35.5198 354.997 36.7364 356.32 38.0645 358.896 38.6277 360.045 38.7999 360.391 39.1544 360.609 39.5414 360.607L51.6009 360.607C51.9879 360.609 52.3424 360.391 52.5145 360.045 53.0777 358.896 54.4059 356.325 55.6223 354.997 56.6095 353.886 57.3903 352.606 57.928 351.22 58.4913 349.75 58.8038 348.197 58.8523 346.625ZM55.7923 346.577C55.7546 347.798 55.516 349.004 55.0859 350.147 54.6824 351.177 54.0997 352.126 53.3645 352.952 52.1854 354.356 51.1743 355.892 50.3523 357.532L40.7898 357.532C39.9772 355.889 38.9753 354.346 37.8043 352.935 37.0691 352.11 36.4863 351.16 36.083 350.13 35.6439 348.99 35.3962 347.783 35.3498 346.56L35.3498 346.179C35.445 340.6 39.9763 336.118 45.5552 336.085L45.5552 336.085C51.134 336.118 55.6654 340.6 55.7605 346.179Z" transform="matrix(1 0 0 1.00106 -0.463636 -14.5942)"/><path d="M45.688 330.968C46.2748 330.968 46.7505 330.492 46.7505 329.907L46.7505 326.187C46.7505 325.601 46.2748 325.125 45.688 325.125 45.1012 325.125 44.6255 325.601 44.6255 326.187L44.6255 329.907C44.6255 330.492 45.1012 330.968 45.688 330.968Z" transform="matrix(1 0 0 1.00106 -0.463636 -14.5942)"/><path d="M33.0814 335.639C33.4959 336.05 34.1651 336.05 34.5795 335.639 34.9914 335.225 34.9914 334.555 34.5795 334.14L31.9498 331.5C31.5143 331.107 30.8425 331.141 30.4492 331.577 30.083 331.982 30.0841 332.599 30.4518 333.004Z" transform="matrix(1 0 0 1.00106 -0.463636 -14.5942)"/><path d="M57.5614 336.153C57.8445 336.153 58.1162 336.041 58.3159 335.84L60.9402 333.185C61.2825 332.707 61.1736 332.044 60.697 331.701 60.3209 331.43 59.8133 331.435 59.442 331.713L56.7859 334.368C56.3739 334.783 56.3739 335.452 56.7859 335.867 56.995 336.064 57.2747 336.167 57.5614 336.153Z" transform="matrix(1 0 0 1.00106 -0.463636 -14.5942)"/><path d="M29.1873 345.047 25.4686 345.047C24.8818 345.047 24.4061 345.522 24.4061 346.109 24.4061 346.696 24.8818 347.172 25.4686 347.172L29.1873 347.172C29.7741 347.172 30.2498 346.696 30.2498 346.109 30.2498 345.522 29.7741 345.047 29.1873 345.047Z" transform="matrix(1 0 0 1.00106 -0.463636 -14.5942)"/><path d="M33.0814 356.543 30.4518 359.199C30.0061 359.581 29.9542 360.252 30.3359 360.698 30.7175 361.143 31.3883 361.194 31.8339 360.814 31.8756 360.777 31.9143 360.738 31.9498 360.698L34.5795 358.042C34.9613 357.595 34.9093 356.924 34.4636 356.543 34.0658 356.203 33.4792 356.203 33.0814 356.543Z" transform="matrix(1 0 0 1.00106 -0.463636 -14.5942)"/><path d="M58.3159 356.342C57.9226 355.906 57.2507 355.872 56.8151 356.264 56.3796 356.658 56.3454 357.329 56.7386 357.765 56.7619 357.791 56.7866 357.816 56.8123 357.839L59.4686 360.496C59.8442 360.947 60.5141 361.007 60.9651 360.632 61.4159 360.256 61.4769 359.587 61.1014 359.136 61.0504 359.074 60.9928 359.02 60.9295 358.97Z" transform="matrix(1 0 0 1.00106 -0.463636 -14.5942)"/><path d="M65.7109 345.01 61.992 345.01C61.4052 345.01 60.9295 345.485 60.9295 346.072 60.9295 346.659 61.4052 347.135 61.992 347.135L65.7109 347.135C66.2977 347.135 66.7734 346.659 66.7734 346.072 66.7734 345.485 66.2977 345.01 65.7109 345.01Z" transform="matrix(1 0 0 1.00106 -0.463636 -14.5942)"/></g></g></g><text font-family="CMU Serif,CMU Serif_MSFontService,sans-serif" font-weight="500" font-size="83" transform="matrix(0.154545 0 0 0.154709 77.8679 330)">Useful<tspan font-size="83" x="252.656" y="0">Helpers </tspan><tspan font-size="83" x="0" y="96.9565">and Tutorials</tspan></text></g></svg>