<svg width="4400" height="892" xmlns="http://www.w3.org/2000/svg" xmlns:xlink="http://www.w3.org/1999/xlink" overflow="hidden"><defs><clipPath id="clip0"><rect x="3" y="1581" width="4400" height="892"/></clipPath><clipPath id="clip1"><rect x="3283" y="1621" width="390" height="389"/></clipPath><clipPath id="clip2"><rect x="3283" y="1621" width="390" height="389"/></clipPath><clipPath id="clip3"><rect x="3283" y="1621" width="390" height="389"/></clipPath><clipPath id="clip4"><rect x="2176" y="1621" width="391" height="389"/></clipPath><clipPath id="clip5"><rect x="2176" y="1621" width="391" height="389"/></clipPath><clipPath id="clip6"><rect x="2176" y="1621" width="391" height="389"/></clipPath><clipPath id="clip7"><rect x="2173" y="2061" width="390" height="390"/></clipPath><clipPath id="clip8"><rect x="2173" y="2061" width="390" height="390"/></clipPath><clipPath id="clip9"><rect x="2173" y="2061" width="390" height="390"/></clipPath><clipPath id="clip10"><rect x="1134" y="1621" width="390" height="389"/></clipPath><clipPath id="clip11"><rect x="1134" y="1621" width="390" height="389"/></clipPath><clipPath id="clip12"><rect x="1134" y="1621" width="390" height="389"/></clipPath><clipPath id="clip13"><rect x="1134" y="2060" width="390" height="390"/></clipPath><clipPath id="clip14"><rect x="1134" y="2060" width="390" height="390"/></clipPath><clipPath id="clip15"><rect x="1134" y="2060" width="390" height="390"/></clipPath><clipPath id="clip16"><rect x="3280" y="1998" width="389" height="392"/></clipPath><clipPath id="clip17"><rect x="3280" y="1998" width="389" height="392"/></clipPath><clipPath id="clip18"><rect x="3280" y="1998" width="389" height="392"/></clipPath><clipPath id="clip19"><rect x="133" y="2090" width="331" height="330"/></clipPath><clipPath id="clip20"><rect x="133" y="2090" width="331" height="330"/></clipPath><clipPath id="clip21"><rect x="133" y="2090" width="331" height="330"/></clipPath></defs><g clip-path="url(#clip0)" transform="translate(-3 -1581)"><rect x="3.0001" y="1581" width="4400" height="892" fill="#F2F2F2"/><text font-family="CMU Serif,CMU Serif_MSFontService,sans-serif" font-weight="500" font-size="110" transform="matrix(1 0 0 1 184.72 1766)">Writing <tspan font-size="110" x="410.781" y="0">a flexible</tspan><tspan font-family="Lucida Console,Lucida Console_MSFontService,sans-serif" font-weight="400" font-stretch="semi-condensed" font-size="110" x="0" y="135">scrapefun</tspan><tspan font-family="Lucida Console,Lucida Console_MSFontService,sans-serif" font-weight="400" font-stretch="semi-condensed" font-size="110" x="598.125" y="135">()</tspan></text><g clip-path="url(#clip1)"><g clip-path="url(#clip2)"><g clip-path="url(#clip3)"><path d="M140.161 260.995 93.8867 214.76 140.161 168.526 151.588 179.953 116.821 214.76 151.588 249.568 140.161 260.995Z" transform="matrix(1 0 0 1 3284 1621)"/><path d="M248.838 260.995 237.411 249.568 272.178 214.76 237.411 179.953 248.838 168.526 295.113 214.76 248.838 260.995Z" transform="matrix(1 0 0 1 3284 1621)"/><path d="M143.606 208.844 244.867 208.844 244.867 225.053 143.606 225.053Z" transform="matrix(0.382845 -0.923813 0.923813 0.382845 3203.44 1934.35)"/><path d="M32.4166 68.8854 32.4166 320.114 356.583 320.114 356.583 68.8854ZM312.01 93.1979C316.486 93.1979 320.114 96.8261 320.114 101.302 320.114 105.778 316.486 109.406 312.01 109.406 307.534 109.406 303.906 105.778 303.906 101.302 303.906 96.8261 307.534 93.1979 312.01 93.1979ZM283.646 93.1979C288.122 93.1979 291.75 96.8261 291.75 101.302 291.75 105.778 288.122 109.406 283.646 109.406 279.17 109.406 275.542 105.778 275.542 101.302 275.542 96.8261 279.17 93.1979 283.646 93.1979ZM255.281 93.1979C259.757 93.1979 263.385 96.8261 263.385 101.302 263.385 105.778 259.757 109.406 255.281 109.406 250.805 109.406 247.177 105.778 247.177 101.302 247.177 96.8261 250.805 93.1979 255.281 93.1979ZM332.271 295.802 56.7291 295.802 56.7291 133.719 332.271 133.719Z" transform="matrix(1 0 0 1 3284 1621)"/></g></g></g><g clip-path="url(#clip4)"><g clip-path="url(#clip5)"><g clip-path="url(#clip6)"><path d="M298.663 175.253 356.583 162.249 353.029 146.446 295.397 159.381 201.214 67.8805 201.214 36.8739 185.006 36.8739 185.006 68.1033 77.7027 156.41 33.1906 146.438 29.6369 162.241 74.1531 172.242 115.379 295.397 86.3823 340.01 99.9729 348.844 128.897 304.332 239.19 276.425 286.251 348.844 299.854 340.01 252.445 267.101ZM237.12 243.494 206.251 195.999 267.98 182.141ZM267.032 165.73 201.214 180.52 201.214 101.784ZM185.006 99.588 185.006 180.52 107.761 163.177ZM101.857 178.462 179.965 195.999 132.296 269.342ZM148.403 274.326 193.11 205.518 225.19 254.876Z" transform="matrix(1 0 0 1 2177 1621)"/></g></g></g><g clip-path="url(#clip7)"><g clip-path="url(#clip8)"><g clip-path="url(#clip9)"><path d="M217.192 215.976C230.969 226.917 243.936 245.962 253.661 267.438L135.34 267.438C145.47 245.962 158.031 226.512 171.808 215.976 178.292 210.708 182.344 203.009 182.344 194.5 182.344 185.991 178.292 178.292 171.808 173.024 144.254 151.548 120.347 96.4396 116.295 56.7292L273.111 56.7292C268.653 96.4396 245.151 151.548 217.597 173.024 210.708 178.292 206.656 185.991 206.656 194.5 206.656 203.009 210.708 210.708 217.192 215.976ZM297.018 56.7292 307.958 56.7292 307.958 32.4167 81.0417 32.4167 81.0417 56.7292 91.5771 56.7292C96.0344 101.707 121.968 167.351 159.652 194.5 121.968 221.649 95.6292 287.293 91.5771 332.271L81.0417 332.271 81.0417 356.583 307.958 356.583 307.958 332.271 297.018 332.271C292.966 287.293 266.627 221.649 228.943 194.5 266.627 167.351 292.966 101.707 297.018 56.7292Z" transform="matrix(1 0 0 1.00257 2174 2061)"/></g></g></g><g clip-path="url(#clip10)"><g clip-path="url(#clip11)"><g clip-path="url(#clip12)"><path d="M224.891 141.823 160.057 141.823 160.057 239.073 109.406 239.073 192.474 336.323 275.542 239.073 224.891 239.073Z" transform="matrix(1.00257 0 0 1 1134 1621)"/><path d="M326.598 153.574C323.356 133.719 312.415 115.89 296.207 104.138 279.594 92.3874 258.523 87.9302 238.262 91.9822 218.407 61.5916 181.533 46.5989 146.28 55.1083 111.837 64.0229 85.9041 92.7927 80.6364 128.046 57.9448 128.856 36.4687 139.797 22.6917 158.031 6.48333 180.723 3.64687 210.303 14.9927 235.831 26.7437 260.954 51.0562 277.568 78.6104 279.188L108.191 279.188 97.2499 265.817 87.1197 254.065 79.826 254.065C61.5916 252.85 45.3833 241.909 37.2791 225.296 29.5802 208.277 31.6062 188.827 42.5469 173.429 53.4875 158.436 71.7218 151.143 90.3614 153.979L104.544 156.41 104.544 140.607C104.544 111.837 123.994 86.7145 151.953 79.826 179.912 72.9375 208.682 86.7145 221.649 112.243L226.511 121.968 236.642 118.321C252.039 113.053 268.653 115.484 282.025 124.804 294.992 134.529 302.69 149.522 303.096 165.73L303.096 178.292 319.709 178.292C340.375 179.102 356.583 196.121 356.178 216.381 356.178 237.047 339.564 253.66 319.304 254.065L298.233 254.065 287.698 265.817 276.352 279.594 319.304 279.594C352.126 278.783 378.87 252.85 380.896 220.028 382.922 187.206 359.014 158.436 326.598 153.574Z" transform="matrix(1.00257 0 0 1 1134 1621)"/></g></g></g><g clip-path="url(#clip13)"><g clip-path="url(#clip14)"><g clip-path="url(#clip15)"><path d="M1450.47 2360.71 1434.22 2279.46C1432.62 2271.44 1426.38 2265.17 1418.37 2263.53L1418.37 2181.06 1424.35 2183.54C1432.68 2186.87 1442.14 2182.81 1445.47 2174.48 1448.74 2166.29 1444.89 2156.98 1436.78 2153.51L1233.65 2069.38C1225.36 2065.94 1215.86 2069.88 1212.42 2078.18 1208.99 2086.47 1212.93 2095.97 1221.22 2099.41L1286.54 2126.46 1221.22 2153.5C1212.89 2156.83 1208.83 2166.29 1212.17 2174.62 1215.5 2182.95 1224.95 2187.01 1233.29 2183.68 1233.41 2183.63 1233.53 2183.58 1233.65 2183.52L1239.62 2181.06 1239.62 2263.53C1231.62 2265.17 1225.38 2271.45 1223.78 2279.46L1207.53 2360.71C1205.7 2369.85 1210.33 2379.06 1218.75 2383.05L1268.59 2406.66 1268.94 2398.02C1269.37 2386.84 1272.92 2376 1279.21 2366.74L1250.48 2353.13 1263.59 2287.42C1265.11 2279.78 1262.11 2271.95 1255.88 2267.27L1255.88 2174.32 1320.87 2147.4 1320.87 2247.42C1297.43 2250.41 1284.99 2266.83 1284.99 2295.29 1284.99 2326.89 1304.99 2352.5 1329 2352.5 1353.01 2352.5 1373.01 2326.89 1373.01 2295.29 1373.01 2266.83 1360.57 2250.41 1337.12 2247.42L1337.12 2147.4 1402.12 2174.32 1402.12 2267.27C1395.89 2271.95 1392.89 2279.78 1394.41 2287.42L1407.54 2353.12 1378.81 2366.72C1385.09 2375.98 1388.65 2386.82 1389.08 2398L1389.43 2406.64 1439.26 2383.03C1447.67 2379.04 1452.29 2369.84 1450.47 2360.71Z"/><path d="M1352.12 2358.47C1337.82 2366.76 1320.18 2366.76 1305.88 2358.47 1291.18 2366.56 1281.78 2381.74 1281.1 2398.5L1279.35 2441.87 1378.65 2441.87 1376.9 2398.5C1376.22 2381.74 1366.82 2366.56 1352.12 2358.47Z"/><path d="M1436.78 2099.41C1445.14 2096.14 1449.26 2086.71 1445.99 2078.35 1442.72 2069.99 1433.29 2065.87 1424.93 2069.14 1424.74 2069.22 1424.54 2069.3 1424.35 2069.38L1344.92 2102.25 1387.39 2119.84Z"/></g></g></g><g clip-path="url(#clip16)"><g clip-path="url(#clip17)"><g clip-path="url(#clip18)"><path d="M320.925 239.883C320.925 206.656 294.992 179.912 262.17 178.292L262.17 153.979 67.6698 153.979 67.6698 340.375C67.6698 349.289 74.9635 356.583 83.8781 356.583L245.961 356.583C254.876 356.583 262.17 349.289 262.17 340.375L262.17 301.88C294.992 300.259 320.925 273.11 320.925 239.883ZM262.575 277.568 262.575 202.604C282.025 204.225 297.018 220.433 297.018 239.883 297.018 259.333 281.62 275.947 262.575 277.568Z" transform="matrix(1 0 0 1.00257 3280 1999)"/><path d="M157.626 74.9635C160.057 77.3948 161.273 80.2312 161.273 83.4729 161.273 86.7145 160.057 89.9562 157.626 91.9822 154.384 95.2239 154.384 100.086 157.626 103.328 159.247 104.949 161.273 105.759 163.299 105.759 165.325 105.759 167.351 104.949 168.972 103.328 174.239 98.0604 177.481 90.7666 177.481 83.0677 177.481 75.3687 174.645 68.4802 168.972 63.2125 168.972 63.2125 168.972 63.2125 168.972 63.2125 164.109 58.35 164.109 50.651 168.972 46.1937 172.213 42.9521 172.213 38.0896 168.972 34.8479 165.73 31.6062 160.868 31.6062 157.626 34.8479 146.28 45.7885 146.28 64.0229 157.626 74.9635 157.626 74.9635 157.626 74.9635 157.626 74.9635Z" transform="matrix(1 0 0 1.00257 3280 1999)"/><path d="M201.794 98.4656C206.656 103.328 206.656 111.027 201.794 115.484 198.552 118.726 198.552 123.588 201.794 126.83 203.414 128.451 205.441 129.261 207.467 129.261 209.493 129.261 211.519 128.451 213.139 126.83 224.08 115.89 224.08 97.6552 213.139 86.7145 213.139 86.7145 213.139 86.7145 213.139 86.7145 210.708 84.2833 209.493 81.4468 209.493 78.2052 209.493 74.9635 210.708 71.7218 213.139 69.6958 216.381 66.4541 216.381 61.5916 213.139 58.35 209.898 55.1083 205.035 55.1083 201.794 58.35 196.526 63.6177 193.284 70.9114 193.284 78.6104 193.689 86.3093 196.526 93.1979 201.794 98.4656 201.794 98.4656 201.794 98.4656 201.794 98.4656Z" transform="matrix(1 0 0 1.00257 3280 1999)"/><path d="M117.105 98.4656C119.536 100.897 120.752 103.733 120.752 106.975 120.752 110.217 119.536 113.458 117.105 115.484 113.863 118.726 113.863 123.588 117.105 126.83 118.726 128.451 120.752 129.261 122.778 129.261 124.804 129.261 126.83 128.451 128.451 126.83 133.719 121.562 136.96 114.269 136.96 106.57 136.96 98.8708 134.124 91.9822 128.451 86.3093L128.451 86.3093C123.588 81.4468 123.588 73.7479 128.451 69.2906 131.693 66.0489 131.693 61.1864 128.451 57.9448 125.209 54.7031 120.347 54.7031 117.105 57.9448 105.759 69.6958 105.759 87.525 117.105 98.4656 117.105 98.4656 117.105 98.4656 117.105 98.4656Z" transform="matrix(1 0 0 1.00257 3280 1999)"/></g></g></g><text font-family="CMU Serif,CMU Serif_MSFontService,sans-serif" font-weight="500" font-size="83" transform="matrix(1 0 0 1 1557.07 1738)">Download <tspan font-size="83" x="0" y="99">webpage</tspan><tspan font-size="83" x="0" y="198">content</tspan><tspan font-size="83" x="-0.866455" y="464">Control remote </tspan><tspan font-size="83" x="-0.866455" y="563">browser</tspan><tspan font-size="83" x="1042.2" y="99">Proxy Rotation</tspan><tspan font-size="83" x="1042.2" y="539">Time </tspan><tspan font-size="83" x="1257.62" y="539">Requests</tspan><tspan font-size="83" x="2152.19" y="44">Extract </tspan><tspan font-size="83" x="2454.12" y="44">hmtl</tspan><tspan font-size="83" x="2152.19" y="143">elements</tspan><tspan font-size="83" x="2149.36" y="434">Execute </tspan><tspan font-size="83" x="2149.36" y="533">Javascript</tspan></text><g clip-path="url(#clip19)"><g clip-path="url(#clip20)"><g clip-path="url(#clip21)"><path d="M323.197 2224.65 326.119 2215.98 319.519 2209.38 310.856 2212.31C308.604 2211.04 306.202 2210.06 303.706 2209.38L299.65 2201.31 290.438 2201.31 286.347 2209.42C283.842 2210.1 281.429 2211.08 279.163 2212.34L270.5 2209.42 263.9 2216.02 266.65 2224.68C265.331 2226.92 264.314 2229.32 263.625 2231.83L255.513 2235.89 255.513 2244.96 263.625 2249.05C264.294 2251.55 265.275 2253.95 266.547 2256.2L263.625 2264.87 270.5 2271.47 279.163 2268.51C281.413 2269.79 283.815 2270.78 286.313 2271.47L290.369 2279.54 299.581 2279.54 303.672 2271.6C306.126 2270.94 308.492 2269.98 310.719 2268.75L319.347 2271.71 325.947 2265.07 323.025 2256.44C324.338 2254.18 325.388 2251.77 326.153 2249.26L334.231 2245.2 334.231 2235.89 326.119 2231.8C325.463 2229.3 324.48 2226.89 323.197 2224.65ZM295.009 2254.31C287.416 2254.31 281.259 2248.16 281.259 2240.56 281.259 2232.97 287.416 2226.81 295.009 2226.81 302.557 2226.92 308.649 2233.01 308.759 2240.56 308.759 2248.16 302.603 2254.31 295.009 2254.31Z"/><path d="M324.538 2347.09 265.378 2347.09C259.901 2347.41 255.723 2352.11 256.045 2357.59 256.341 2362.62 260.352 2366.63 265.378 2366.93L324.538 2366.93C330.014 2366.6 334.193 2361.9 333.871 2356.42 333.574 2351.4 329.564 2347.39 324.538 2347.09Z"/><path d="M294.975 2400.51C306.199 2400.49 315.53 2391.86 316.425 2380.68L273.491 2380.68C274.403 2391.87 283.745 2400.49 294.975 2400.51Z"/><path d="M380.809 2242.87 380.809 2239.91C379.934 2192.99 341.8 2155.33 294.872 2155.04L294.872 2155.04C247.944 2155.33 209.81 2192.99 208.934 2239.91L208.934 2242.87C209.249 2253.04 211.271 2263.09 214.916 2272.6 218.395 2281.57 223.447 2289.85 229.834 2297.04 237.706 2305.6 246.3 2322.27 249.944 2329.7 251.058 2331.94 253.352 2333.35 255.856 2333.34L333.888 2333.34C336.392 2333.35 338.686 2331.94 339.8 2329.7 343.444 2322.27 352.038 2305.63 359.909 2297.04 366.297 2289.85 371.349 2281.57 374.828 2272.6 378.473 2263.09 380.495 2253.04 380.809 2242.87ZM361.009 2242.56C360.765 2250.46 359.221 2258.26 356.438 2265.66 353.827 2272.32 350.057 2278.46 345.3 2283.81 337.67 2292.89 331.128 2302.83 325.809 2313.44L263.934 2313.44C258.676 2302.81 252.193 2292.83 244.616 2283.7 239.859 2278.36 236.088 2272.21 233.478 2265.55 230.637 2258.17 229.034 2250.36 228.734 2242.45L228.734 2239.98C229.35 2203.88 258.67 2174.88 294.769 2174.67L294.769 2174.67C330.867 2174.88 360.188 2203.88 360.803 2239.98Z"/><path d="M295.628 2141.56C299.425 2141.56 302.503 2138.48 302.503 2134.69L302.503 2110.62C302.503 2106.83 299.425 2103.75 295.628 2103.75 291.831 2103.75 288.753 2106.83 288.753 2110.62L288.753 2134.69C288.753 2138.48 291.831 2141.56 295.628 2141.56Z"/><path d="M214.056 2171.78C216.738 2174.44 221.068 2174.44 223.75 2171.78 226.415 2169.1 226.415 2164.77 223.75 2162.08L206.734 2145C203.916 2142.46 199.569 2142.68 197.024 2145.5 194.655 2148.12 194.662 2152.11 197.041 2154.73Z"/><path d="M372.456 2175.11C374.288 2175.11 376.046 2174.38 377.338 2173.08L394.319 2155.9C396.534 2152.81 395.829 2148.52 392.745 2146.3 390.312 2144.55 387.027 2144.58 384.625 2146.38L367.438 2163.56C364.772 2166.24 364.772 2170.57 367.438 2173.26 368.791 2174.53 370.601 2175.2 372.456 2175.11Z"/><path d="M188.859 2232.66 164.797 2232.66C161 2232.66 157.922 2235.73 157.922 2239.53 157.922 2243.33 161 2246.41 164.797 2246.41L188.859 2246.41C192.656 2246.41 195.734 2243.33 195.734 2239.53 195.734 2235.73 192.656 2232.66 188.859 2232.66Z"/><path d="M214.056 2307.04 197.041 2324.23C194.157 2326.7 193.821 2331.04 196.291 2333.93 198.76 2336.81 203.101 2337.14 205.984 2334.68 206.254 2334.44 206.504 2334.19 206.734 2333.93L223.75 2316.74C226.22 2313.85 225.884 2309.51 223 2307.04 220.426 2304.84 216.63 2304.84 214.056 2307.04Z"/><path d="M377.338 2305.74C374.793 2302.92 370.446 2302.7 367.627 2305.24 364.809 2307.79 364.588 2312.13 367.132 2314.95 367.283 2315.12 367.443 2315.28 367.609 2315.43L384.797 2332.62C387.227 2335.54 391.562 2335.93 394.48 2333.5 397.397 2331.07 397.792 2326.74 395.362 2323.82 395.032 2323.42 394.659 2323.07 394.25 2322.75Z"/><path d="M425.188 2232.42 401.125 2232.42C397.328 2232.42 394.25 2235.49 394.25 2239.29 394.25 2243.09 397.328 2246.17 401.125 2246.17L425.188 2246.17C428.985 2246.17 432.063 2243.09 432.063 2239.29 432.063 2235.49 428.985 2232.42 425.188 2232.42Z"/></g></g></g><text font-family="CMU Serif,CMU Serif_MSFontService,sans-serif" font-weight="500" font-size="83" transform="matrix(1 0 0 1 506.851 2227)">Useful<tspan font-size="83" x="252.656" y="0">Helpers </tspan><tspan font-size="83" x="0" y="99">and Tutorials</tspan></text></g></svg>